<svg width="1512" height="982" viewBox="0 0 1512 982" fill="none" xmlns="http://www.w3.org/2000/svg">
<g opacity="0.2" filter="url(#filter0_d_520_199)">
<path d="M1019.46 0C912.214 113.633 848.312 234.787 861.294 360.189C863.128 377.905 860.378 392.033 853.534 402.988C846.688 413.947 835.822 421.612 821.653 426.544C793.377 436.387 751.691 435.435 701.534 427.876C601.173 412.751 466.112 371.036 334.735 335.014C269.022 316.996 204.215 300.397 145.073 289.235C136.265 287.573 127.584 286.033 119.046 284.626C92.8199 351.317 63.39 417.403 25.3896 477.16C17.1081 490.183 8.63211 502.005 0 512.707V509.506C8.04498 499.383 15.9569 488.266 23.7021 476.086C61.5281 416.603 90.8594 350.8 117.026 284.295C108.382 282.888 99.8859 281.619 91.5547 280.504C66.3868 337.439 39.8064 394.711 9.12695 449.26L9.12207 449.27L9.11719 449.277C6.11447 454.36 3.07442 459.265 0 463.999V460.303C2.4878 456.405 4.95361 452.392 7.39453 448.261C37.9296 393.967 64.403 336.961 89.4883 280.23C80.076 278.996 70.877 277.959 61.915 277.14C41.5803 319.889 21.1949 363.44 0 406.828V402.275C20.4232 360.368 40.1241 318.296 59.7891 276.949C49.6795 276.061 39.8767 275.452 30.415 275.156C20.0576 296.479 9.93189 318.196 0 340.235V335.38C9.22658 314.99 18.6214 294.875 28.2197 275.094C18.4277 274.836 9.00811 274.918 0 275.371V273.37C9.3103 272.904 19.0515 272.834 29.1807 273.121C31.5862 268.176 34.0042 263.252 36.4355 258.35C25.6081 258.278 15.2115 258.6 5.29785 259.361C3.5156 263.055 1.75035 266.769 0 270.501V265.812C0.992037 263.719 1.98833 261.63 2.99023 259.548C1.98851 259.632 0.991584 259.722 0 259.815V257.808C1.32321 257.683 2.65525 257.567 3.99609 257.459C6.34772 252.598 8.72762 247.769 11.1338 242.975C7.35391 243.366 3.64194 243.822 0 244.339V242.318C3.98509 241.757 8.05227 241.27 12.1982 240.857C14.7455 235.809 17.3243 230.797 19.9316 225.823C13.0755 226.668 6.42619 227.704 0 228.945V226.909C6.78268 225.61 13.8094 224.537 21.0615 223.674C23.8417 218.399 26.6557 213.166 29.5029 207.976C19.2195 209.45 9.36759 211.329 0 213.653V211.592C9.74115 209.195 19.9965 207.277 30.7061 205.788C33.7708 200.233 36.8736 194.726 40.0146 189.27C27.3227 191.354 15.2343 194.01 3.8457 197.317C2.55263 199.652 1.27155 202 0 204.358V200.168C0.371627 199.487 0.741851 198.806 1.11523 198.127C0.742799 198.24 0.370909 198.354 0 198.468V196.377C0.828047 196.124 1.65957 195.874 2.49512 195.629C5.54775 190.132 8.65945 184.699 11.8271 179.332C7.80185 180.612 3.85838 181.97 0 183.406V181.272C4.34705 179.669 8.80008 178.165 13.3535 176.757C16.8902 170.821 20.4964 164.966 24.1699 159.188C15.7877 161.976 7.72005 165.066 0 168.481V166.296C8.24928 162.682 16.8864 159.436 25.8701 156.527C30.0571 150.007 34.329 143.586 38.6846 137.267C25.0154 142.001 12.0764 147.449 0 153.716V151.465C12.6612 144.961 26.2463 139.344 40.6045 134.496C45.7065 127.168 50.9205 119.975 56.2402 112.914C41.0657 118.361 26.6555 124.576 13.1758 131.694C8.66541 138.007 4.27199 144.447 0 151.019V147.365C3.01229 142.789 6.08203 138.276 9.21094 133.826C6.25408 135.449 3.34373 137.118 0.482422 138.833C0.321262 138.93 0.160849 139.028 0 139.125V136.793C3.856 134.495 7.79856 132.28 11.8232 130.146C17.5441 122.155 23.4481 114.365 29.5273 106.774C19.8288 111.953 10.5351 117.536 1.70117 123.566C1.1322 123.955 0.565146 124.345 0 124.737V122.31C0.191193 122.178 0.381616 122.046 0.573242 121.915C10.7149 114.992 21.4548 108.657 32.709 102.846C40.9322 92.7684 49.4594 83.0394 58.2656 73.6455C43.3184 81.2556 29.0943 89.6268 15.7568 98.8887C10.3449 105.033 5.08979 111.345 0 117.831V114.599C2.89226 110.957 5.83654 107.37 8.83203 103.838C6.83934 105.303 4.86726 106.79 2.91797 108.299C1.93924 109.056 0.967594 109.821 0 110.59V108.037C0.562936 107.595 1.12771 107.154 1.69434 106.716C5.83867 103.508 10.0819 100.4 14.417 97.3848C28.0801 81.8905 42.7241 67.4555 58.1787 53.9639C38.8469 65.5932 20.7144 78.5245 4.13281 93.0254C2.74418 94.2398 1.36667 95.4655 0 96.7021V91.5527C36.0734 54.0391 79.7493 24.419 127.324 0H135.099C114.754 12.6511 95.1502 26.3254 76.5586 41.21C87.3543 35.3998 98.4582 29.9396 109.817 24.792C119.971 16.208 130.367 7.95203 140.969 0H144.309C134.866 7.02766 125.585 14.2932 116.492 21.8154C128.952 16.347 141.701 11.2373 154.667 6.43164C157.099 4.26957 159.544 2.12655 161.999 0H165.062C163.317 1.50236 161.577 3.01303 159.844 4.5332C164.095 2.99055 168.369 1.48114 172.662 0H178.85C171.072 2.62733 163.357 5.34754 155.72 8.17383C141.793 20.5655 128.238 33.5425 115.11 47.127C126.421 43.0469 137.975 39.2557 149.719 35.71C160.651 23.3748 171.847 11.4677 183.298 0H186.132C174.966 11.1254 164.04 22.6666 153.365 34.6182C161.258 32.2767 169.235 30.0454 177.277 27.9092C184.757 18.3715 192.367 9.06428 200.115 0H202.75C195.201 8.79236 187.782 17.8163 180.487 27.0615C186.039 25.6077 191.621 24.198 197.229 22.8301C199.956 18.8016 202.705 14.8107 205.477 10.8604C208.041 7.2054 210.627 3.58592 213.23 0H215.703C212.817 3.96032 209.953 7.96288 207.114 12.0088C204.768 15.3535 202.438 18.728 200.123 22.1289C203.923 21.2129 207.733 20.315 211.554 19.4346C211.659 19.4104 211.764 19.3855 211.869 19.3613C215.641 12.809 219.468 6.35271 223.356 0H225.703C221.923 6.15353 218.2 12.4066 214.529 18.7529C217.236 18.1362 219.948 17.5272 222.664 16.9268C225.423 11.2114 228.227 5.56763 231.077 0H233.325C230.558 5.38816 227.834 10.8499 225.151 16.3809C253.119 10.2538 281.531 4.95234 309.752 0H321.411C289.006 5.60007 256.245 11.5765 224.045 18.6709C221.306 24.359 218.608 30.1184 215.947 35.9443C213.812 40.6193 211.7 45.3367 209.609 50.0928C214.001 49.352 218.407 48.6316 222.824 47.9326C264.604 41.3213 307.421 36.4918 349.231 31.8418C391.051 27.1908 431.858 22.7203 469.657 16.8262C498.706 12.2965 525.954 6.92691 550.497 0H557.659C531.312 7.90476 501.678 13.8566 469.965 18.8018C432.113 24.7041 391.258 29.1796 349.452 33.8291C307.637 38.4796 264.863 43.3051 223.136 49.9082C218.291 50.6749 213.46 51.4662 208.647 52.2832C204.605 61.5293 200.639 70.9215 196.729 80.4385C209.068 78.9358 221.539 77.6166 234.089 76.4385C278.261 72.2918 323.458 69.889 367.353 67.3857C411.257 64.8819 453.859 62.2764 492.883 57.7275C531.91 53.1782 567.313 46.6896 596.828 36.4326C622.506 27.5092 643.664 15.7531 658.882 0H661.64C646.035 16.7652 624.07 29.0833 597.484 38.3223C567.769 48.6489 532.2 55.1586 493.113 59.7148C454.023 64.2715 411.366 66.8783 367.467 69.3818C323.558 71.886 278.403 74.2863 234.275 78.4287C221.359 79.6412 208.535 81.0052 195.859 82.5615C192.392 91.0371 188.968 99.6099 185.574 108.267C205.178 106.726 225.174 105.676 245.349 104.947C291.914 103.265 339.491 103.289 385.471 102.932C431.462 102.574 475.857 101.836 516.106 98.6318C556.362 95.4271 592.415 89.7596 621.736 79.5684C650.999 69.3972 673.46 54.7533 686.746 33.6533C689.721 22.2462 693.793 11.031 698.886 0H701.089C695.839 11.2481 691.663 22.6829 688.641 34.3115L688.602 34.4609L688.521 34.5918C674.912 56.2885 651.949 71.1837 622.393 81.457C592.836 91.7304 556.586 97.416 516.265 100.626C475.937 103.836 431.477 104.574 385.486 104.932C339.483 105.289 291.948 105.265 245.42 106.946C224.924 107.687 204.634 108.759 184.767 110.338C181.691 118.206 178.639 126.141 175.602 134.134C201.968 133.108 229.137 133.022 256.603 133.46C354.596 135.023 456.317 143.259 539.327 139.537C580.813 137.677 617.516 132.83 646.644 122.704C675.714 112.598 697.129 97.2728 708.295 74.5156C713.212 48.9112 723.194 24.0872 737.517 0H739.846C725.278 24.2702 715.163 49.2649 710.233 75.0264L710.209 75.1582L710.15 75.2783C698.685 98.744 676.706 114.37 647.301 124.593C617.903 134.813 580.973 139.672 539.418 141.535C456.347 145.26 354.35 137.02 256.57 135.46C228.815 135.017 201.395 135.113 174.828 136.168C172.03 143.543 169.244 150.966 166.46 158.428C199.201 158.349 233.319 159.793 267.852 161.975C370.626 168.468 477.089 181.475 562.547 180.443C605.263 179.927 642.617 175.901 671.551 165.841C700.427 155.8 720.802 139.794 729.854 115.368C735.158 75.3896 751.851 36.957 777.593 0H780.034C753.967 37.1249 737.113 75.6858 731.821 115.75L731.807 115.859L731.769 115.965C722.457 141.194 701.466 157.556 672.208 167.729C642.969 177.896 605.36 181.927 562.572 182.443C477.022 183.477 370.31 170.453 267.725 163.972C232.924 161.773 198.599 160.328 165.713 160.431C163.116 167.397 160.521 174.397 157.921 181.423C196.726 182.634 237.644 186.089 279.097 190.491C386.655 201.913 497.856 219.694 585.767 221.352C629.715 222.18 667.719 218.971 696.459 208.977C725.133 199.005 744.472 182.324 751.418 156.224C755.813 101.818 779.783 49.7501 818.243 0H820.774C781.923 49.9103 757.778 102.065 753.405 156.478L753.398 156.566L753.375 156.653C746.226 183.638 726.23 200.74 697.115 210.865C668.036 220.978 629.747 224.18 585.729 223.351C497.705 221.691 386.272 203.883 278.885 192.479C237.181 188.051 196.09 184.59 157.188 183.4C154.739 190.022 152.283 196.666 149.818 203.328C194.431 206.105 242.056 211.983 290.336 219.009C402.681 235.358 518.616 257.914 608.982 262.26C654.165 264.433 692.819 262.042 721.366 252.112C749.833 242.21 768.147 224.859 772.989 197.068C775.405 128.26 807.027 62.5102 858.899 0H861.503C809.182 62.672 777.379 128.472 774.986 197.211L774.984 197.279L774.973 197.347C769.991 226.075 751.002 243.921 722.023 254.001C693.104 264.06 654.134 266.433 608.886 264.257C518.391 259.905 402.234 237.314 290.048 220.988C241.528 213.927 193.759 208.043 149.093 205.288C146.753 211.611 144.402 217.949 142.038 224.297C192.239 228.862 246.521 237.528 301.572 247.527C418.705 268.804 539.372 296.133 632.196 303.168C678.613 306.686 717.919 305.112 746.273 295.247C760.435 290.32 771.819 283.341 780 273.938C788.165 264.553 793.191 252.695 794.563 237.906C794.114 154.753 833.625 75.257 899.219 0H901.876C835.787 75.4257 796.098 154.938 796.564 237.949L796.565 237.998L796.561 238.047C795.159 253.227 789.985 265.507 781.508 275.25C773.039 284.984 761.325 292.128 746.931 297.136C718.171 307.141 678.522 308.683 632.045 305.161C539.082 298.116 418.2 270.745 301.215 249.495C245.933 239.454 191.531 230.783 141.314 226.241C139.053 232.307 136.776 238.382 134.483 244.462C135.287 244.556 136.093 244.649 136.899 244.746C191.822 251.333 251.871 262.95 312.806 276.046C434.727 302.249 560.126 334.354 655.41 344.077C703.063 348.94 743.019 348.183 771.182 338.384C785.243 333.491 796.311 326.361 803.943 316.6C811.566 306.852 815.825 294.4 816.143 278.74C812.089 181.316 859.629 87.995 939.012 0H941.709C861.792 88.1733 814.086 181.479 818.143 278.692L818.144 278.723V278.754C817.823 294.783 813.456 307.682 805.52 317.831C797.589 327.972 786.157 335.29 771.839 340.272C743.24 350.224 702.911 350.935 655.207 346.066C559.777 336.328 434.169 304.174 312.386 278.001C251.468 264.909 191.49 253.308 136.661 246.731C135.692 246.615 134.723 246.504 133.757 246.391C132.577 249.514 131.395 252.64 130.205 255.766C129.171 258.481 128.132 261.196 127.09 263.911C131.746 264.574 136.441 265.271 141.173 266.008C198.246 274.89 260.706 289.007 324.036 304.565C450.747 335.695 580.877 372.574 678.621 384.986C727.51 391.195 768.118 391.254 796.089 381.52C810.049 376.661 820.803 369.382 827.89 359.264C834.974 349.149 838.465 336.096 837.722 319.558C829.452 207.944 885.097 100.718 978.189 0H980.914C887.25 100.911 831.458 208.095 839.719 319.438L839.72 319.453L839.721 319.469C840.479 336.342 836.919 349.857 829.527 360.41C822.138 370.96 810.989 378.451 796.746 383.408C768.308 393.306 727.3 393.185 678.369 386.972C580.473 374.54 450.139 337.604 323.559 306.507C260.243 290.952 197.851 276.852 140.865 267.983C135.987 267.224 131.148 266.506 126.353 265.826C124.186 271.46 122 277.093 119.792 282.723C128.213 284.114 136.769 285.633 145.444 287.271C204.668 298.448 269.539 315.064 335.265 333.085C466.765 369.141 601.626 410.796 701.832 425.897C751.958 433.452 793.217 434.325 820.996 424.655C834.855 419.831 845.294 412.404 851.838 401.93C858.383 391.452 861.108 377.803 859.306 360.396C846.289 234.661 910.064 113.432 1016.71 0H1019.46ZM99.5166 262.406C97.154 267.799 94.7817 273.198 92.3965 278.6C100.702 279.717 109.167 280.984 117.774 282.389C119.977 276.776 122.158 271.158 124.319 265.539C115.913 264.364 107.64 263.314 99.5166 262.406ZM70.2256 259.713C67.7599 264.867 65.2954 270.036 62.8301 275.216C71.775 276.044 80.9498 277.087 90.3311 278.325C92.7101 272.939 95.0758 267.555 97.4326 262.177C88.1591 261.164 79.0825 260.337 70.2256 259.713ZM38.6592 258.369C36.2173 263.286 33.7891 268.227 31.373 273.188C40.83 273.503 50.619 274.124 60.7051 275.022C63.1626 269.858 65.621 264.705 68.0791 259.565C57.9703 258.888 48.152 258.479 38.6592 258.369ZM107.688 243.701C105.253 249.288 102.81 254.885 100.356 260.488C108.452 261.399 116.691 262.448 125.058 263.621C126.154 260.765 127.249 257.91 128.336 255.054C129.466 252.086 130.589 249.117 131.71 246.15C123.579 245.215 115.567 244.396 107.688 243.701ZM78.8711 241.712C76.2965 247.049 73.7231 252.404 71.1523 257.773C79.9881 258.407 89.0365 259.241 98.2744 260.257C100.721 254.67 103.157 249.088 105.585 243.517C96.4939 242.739 87.5821 242.132 78.8711 241.712ZM47.3623 241.05C44.7757 246.135 42.2037 251.246 39.6465 256.382C49.1291 256.511 58.927 256.935 69.0059 257.623C71.568 252.27 74.1321 246.931 76.6982 241.609C66.6364 241.159 56.8461 240.963 47.3623 241.05ZM45.1055 241.077C34.1324 241.231 23.5762 241.77 13.4902 242.739C11.0679 247.553 8.67296 252.4 6.30566 257.28C16.2266 256.555 26.6161 256.261 37.4229 256.356C39.9682 251.238 42.5307 246.146 45.1055 241.077ZM113.443 230.479C111.808 234.237 110.17 238 108.528 241.769C116.375 242.467 124.35 243.288 132.438 244.223C134.724 238.163 136.993 232.107 139.249 226.058C131.436 225.367 123.726 224.778 116.132 224.301C115.237 226.358 114.34 228.418 113.443 230.479ZM87.9229 223.046C85.2159 228.595 82.5133 234.165 79.8145 239.754C88.4993 240.184 97.3775 240.799 106.428 241.581C108.158 237.609 109.887 233.642 111.61 229.681C112.41 227.843 113.209 226.006 114.008 224.17C105.147 223.636 96.4449 223.254 87.9229 223.046ZM54.3086 223.186C43.2381 223.583 32.5638 224.352 22.3389 225.537C19.7134 230.531 17.1186 235.563 14.5537 240.632C24.6414 239.701 35.184 239.193 46.1289 239.064C48.8395 233.744 51.5641 228.449 54.3086 223.186ZM85.7207 222.996C75.756 222.787 66.0411 222.816 56.6084 223.109C53.8502 228.391 51.109 233.703 48.3848 239.044C57.8533 238.978 67.6174 239.188 77.6436 239.65C80.3324 234.08 83.0237 228.527 85.7207 222.996ZM116.979 222.35C124.536 222.831 132.204 223.423 139.972 224.113C142.329 217.785 144.674 211.465 147.008 205.159C139.556 204.715 132.193 204.361 124.928 204.103C122.282 210.166 119.633 216.25 116.979 222.35ZM64.1592 204.56C53.0413 205.215 42.2951 206.224 31.9736 207.63C29.1048 212.842 26.2698 218.097 23.4688 223.396C33.6852 222.253 44.3384 221.518 55.376 221.148C58.2851 215.586 61.2104 210.055 64.1592 204.56ZM97.4736 203.607C94.6042 209.403 91.7436 215.225 88.8877 221.071C97.3764 221.29 106.039 221.68 114.856 222.219C117.502 216.139 120.141 210.073 122.778 204.027C114.197 203.745 105.756 203.599 97.4736 203.607ZM95.2383 203.613C85.4233 203.657 75.8346 203.92 66.5029 204.427C63.5385 209.942 60.5965 215.493 57.6719 221.077C67.0803 220.806 76.763 220.796 86.6875 221.019C89.532 215.193 92.3803 209.39 95.2383 203.613ZM74.7988 185.044C63.6923 185.972 52.9278 187.23 42.5576 188.861C39.3917 194.341 36.2646 199.872 33.1758 205.452C43.48 204.091 54.1955 203.119 65.2705 202.493C68.4232 196.637 71.5989 190.82 74.7988 185.044ZM134.181 182.971C131.382 189.332 128.587 195.721 125.788 202.132C133.012 202.395 140.331 202.752 147.733 203.197C150.189 196.56 152.637 189.939 155.078 183.339C148.036 183.138 141.067 183.013 134.181 182.971ZM105.373 183.319C95.7707 183.624 86.369 184.126 77.1963 184.85C73.978 190.647 70.7832 196.486 67.6123 202.366C76.9133 201.883 86.4632 201.639 96.2314 201.61C99.2685 195.482 102.315 189.385 105.373 183.319ZM132.002 182.962C123.758 182.933 115.634 183.025 107.646 183.252C104.575 189.338 101.516 195.458 98.4658 201.608C106.71 201.612 115.107 201.765 123.64 202.054C126.427 195.667 129.214 189.301 132.002 182.962ZM51.6953 169.497C38.7546 171.903 26.3845 174.859 14.6816 178.442C11.4711 183.843 8.31597 189.309 5.22266 194.843C16.6065 191.632 28.6648 189.056 41.3037 187.036C44.7227 181.131 48.1879 175.285 51.6953 169.497ZM86.4199 164.438C75.3967 165.647 64.6813 167.16 54.3232 169.017C50.7859 174.831 47.2934 180.705 43.8457 186.639C54.189 185.056 64.9126 183.835 75.9658 182.94C79.4217 176.725 82.9067 170.556 86.4199 164.438ZM116.285 161.923C106.968 162.492 97.824 163.235 88.8789 164.176C85.344 170.318 81.8386 176.511 78.3613 182.753C87.496 182.055 96.852 181.573 106.4 181.285C109.681 174.792 112.975 168.336 116.285 161.923ZM163.575 160.438C157 160.473 150.483 160.571 144.032 160.737C141.036 167.449 138.047 174.197 135.061 180.978C141.902 181.026 148.822 181.154 155.812 181.357C158.402 174.357 160.988 167.382 163.575 160.438ZM141.814 160.795C133.974 161.017 126.233 161.343 118.606 161.784C115.279 168.222 111.968 174.703 108.671 181.223C116.615 181.009 124.691 180.926 132.882 180.963C135.855 174.208 138.831 167.483 141.814 160.795ZM64.8574 148.373C51.7374 151.109 39.1428 154.361 27.1699 158.208C23.4443 164.023 19.7874 169.918 16.2012 175.895C27.8866 172.415 40.2131 169.545 53.0859 167.209C56.9572 160.859 60.8806 154.579 64.8574 148.373ZM99.2871 142.481C88.4388 143.974 77.8591 145.738 67.5938 147.812C63.5802 154.048 59.6186 160.357 55.7119 166.74C66.0317 164.936 76.6951 163.468 87.6533 162.295C91.4957 155.63 95.3732 149.024 99.2871 142.481ZM128.196 139.178C119.254 140.007 110.456 140.99 101.824 142.14C97.8843 148.709 93.9812 155.343 90.1133 162.037C99.0103 161.124 108.098 160.406 117.352 159.855C120.945 152.911 124.559 146.017 128.196 139.178ZM152.402 137.311C145.043 137.772 137.764 138.32 130.576 138.964C126.92 145.828 123.286 152.747 119.674 159.719C127.252 159.293 134.939 158.981 142.721 158.77C145.937 151.572 149.162 144.417 152.402 137.311ZM172.656 136.257C166.612 136.509 160.612 136.812 154.664 137.17C151.408 144.302 148.168 151.485 144.937 158.712C151.338 158.554 157.803 158.463 164.323 158.434C167.096 151.001 169.87 143.605 172.656 136.257ZM79.9766 125.497C66.7771 128.56 54.045 132.096 41.874 136.181C37.4536 142.543 33.1148 149.005 28.8662 155.571C40.8045 151.835 53.3384 148.679 66.3721 146.021C70.8418 139.089 75.3767 132.247 79.9766 125.497ZM113.79 118.802C103.236 120.568 92.9065 122.571 82.8428 124.843C78.1977 131.625 73.6176 138.502 69.1045 145.471C79.318 143.453 89.8324 141.739 100.603 140.287C104.952 133.046 109.348 125.883 113.79 118.802ZM141.425 114.754C132.972 115.827 124.633 117.026 116.428 118.364C111.952 125.476 107.524 132.672 103.142 139.947C111.717 138.828 120.451 137.876 129.322 137.068C133.326 129.562 137.357 122.12 141.425 114.754ZM164.034 112.193C157.253 112.873 150.531 113.622 143.879 114.445C139.786 121.842 135.73 129.314 131.701 136.854C138.832 136.228 146.051 135.694 153.344 135.245C156.885 127.498 160.447 119.812 164.034 112.193ZM182.551 110.519C177.117 110.962 171.715 111.443 166.351 111.967C162.745 119.614 159.166 127.331 155.606 135.11C161.5 134.762 167.442 134.468 173.427 134.223C176.45 126.262 179.491 118.358 182.551 110.519ZM97.7734 100.28C84.6479 103.647 71.9185 107.429 59.6719 111.7C54.2674 118.81 48.9704 126.055 43.7881 133.438C55.9016 129.474 68.5489 126.042 81.6387 123.065C86.9327 115.349 92.3115 107.753 97.7734 100.28ZM78.3057 85.0938C62.8322 90.8142 48.0084 97.218 33.9932 104.434C27.7367 112.113 21.6592 119.996 15.7734 128.091C29.176 121.249 43.4506 115.265 58.4385 110.013C64.91 101.514 71.5346 93.2081 78.3057 85.0938ZM130.523 92.8604C120.433 94.8711 110.52 97.0779 100.817 99.5078C95.2957 107.021 89.8579 114.659 84.5068 122.421C94.504 120.209 104.754 118.256 115.216 116.534C120.257 108.536 125.358 100.643 130.523 92.8604ZM156.457 88.167C148.645 89.4478 140.917 90.8258 133.288 92.3145C128.078 100.135 122.933 108.068 117.849 116.109C125.987 114.804 134.252 113.634 142.624 112.586C147.189 104.35 151.798 96.2073 156.457 88.167ZM177.099 85.0264C171.024 85.8813 164.991 86.7902 159.007 87.7529C154.314 95.8282 149.673 104.009 145.077 112.284C151.665 111.48 158.317 110.749 165.026 110.086C169.013 101.644 173.033 93.2859 177.099 85.0264ZM193.585 82.8408C188.864 83.43 184.165 84.0488 179.49 84.6953C175.4 92.9871 171.355 101.38 167.345 109.859C172.65 109.348 177.99 108.878 183.359 108.445C186.734 99.8246 190.138 91.2843 193.585 82.8408ZM119.454 71.8066C106.659 75.4093 94.1742 79.3589 82.0742 83.7168C75.1865 91.8903 68.4479 100.261 61.8662 108.828C74.0284 104.686 86.6465 101.011 99.6367 97.7402C106.127 88.9232 112.733 80.2772 119.454 71.8066ZM107.688 52C92.4317 57.7543 77.6596 64.0576 63.5068 71.0195C54.4246 80.5255 45.6274 90.3764 37.1494 100.593C51.0279 93.6759 65.6567 87.5265 80.8848 82.0225C89.5904 71.7073 98.5307 61.702 107.688 52ZM150.441 63.8623C141.071 66.0472 131.827 68.3858 122.735 70.8936C115.933 79.4121 109.247 88.11 102.679 96.9834C112.293 94.619 122.106 92.4721 132.085 90.5127C138.115 81.4755 144.233 72.5888 150.441 63.8623ZM104.237 29.5615C91.7824 35.3867 79.6581 41.6025 67.9365 48.2607C51.4527 62.0355 35.8276 76.8191 21.2627 92.751C34.2213 84.2138 47.9474 76.4622 62.3008 69.3867C75.696 55.3834 89.7089 42.1279 104.237 29.5615ZM129.675 1.04102C82.2759 25.2234 38.7655 54.509 2.76953 91.5596C2.78487 91.5461 2.80106 91.533 2.81641 91.5195C22.2308 74.5412 43.747 59.7115 66.8018 46.6045C86.6435 30.0361 107.717 14.9275 129.675 1.04102ZM174.057 58.7168C167.107 60.1328 160.212 61.6183 153.382 63.1836C147.114 71.9532 140.938 80.887 134.851 89.9756C142.398 88.5242 150.038 87.1771 157.757 85.9268C163.118 76.7155 168.548 67.6412 174.057 58.7168ZM192.229 55.1895C187.041 56.1475 181.878 57.1404 176.744 58.1709C171.189 67.1377 165.713 76.2575 160.308 85.5176C166.218 84.5782 172.174 83.6946 178.167 82.8594C182.791 73.5032 187.473 64.2736 192.229 55.1895ZM206.29 52.6865C202.424 53.3506 198.569 54.0314 194.729 54.7314C189.936 63.854 185.219 73.1256 180.562 82.5273C185.171 81.8963 189.802 81.2954 194.452 80.7197C198.336 71.2457 202.276 61.8944 206.29 52.6865ZM147.197 38.5674C135.225 42.2376 123.462 46.1691 111.964 50.4043C102.632 60.1813 93.5219 70.2694 84.6523 80.6768C96.6268 76.4589 108.96 72.6307 121.582 69.1357C129.947 58.6757 138.488 48.4847 147.197 38.5674ZM175.234 30.5234C167.022 32.7299 158.884 35.0387 150.837 37.4619C142.005 47.4403 133.347 57.6995 124.866 68.2354C133.842 65.8 142.96 63.5308 152.194 61.4053C159.736 50.8702 167.414 40.5712 175.234 30.5234ZM150.571 10.1006C137.062 15.2088 123.807 20.6553 110.888 26.5029C95.8634 39.2159 81.3718 52.6462 67.5225 66.8574C81.4379 60.2236 95.9148 54.1983 110.831 48.6904C123.679 35.246 136.944 22.3903 150.571 10.1006ZM195.563 25.2988C189.824 26.7113 184.114 28.1666 178.438 29.6699C170.529 39.7707 162.765 50.1302 155.14 60.7324C161.871 59.2094 168.662 57.7606 175.503 56.3809C182.071 45.7977 188.752 35.4289 195.563 25.2988ZM210.512 21.7295C206.48 22.6641 202.459 23.6173 198.452 24.5918C191.57 34.7735 184.822 45.1987 178.19 55.8438C183.238 54.8407 188.312 53.875 193.409 52.9414C198.768 42.7616 204.223 32.767 209.796 22.9824C210.034 22.5644 210.273 22.1468 210.512 21.7295ZM221.56 19.2207C218.757 19.8438 215.959 20.4764 213.166 21.1172C212.621 22.0666 212.076 23.0182 211.533 23.9717C206.226 33.2912 201.025 42.8032 195.912 52.4844C199.679 51.8033 203.458 51.1379 207.248 50.4912C209.516 45.318 211.808 40.1908 214.127 35.1133C216.572 29.7602 219.048 24.4607 221.56 19.2207Z" fill="white"/>
</g>
<g filter="url(#filter1_n_520_199)">
<rect width="1512" height="982" fill="#549F74" fill-opacity="0.07"/>
</g>
<circle opacity="0.62" cx="1398" cy="81" r="226.5" fill="url(#paint0_linear_520_199)" stroke="white"/>
<path d="M400 908.857H479.952V988.809H400V908.857Z" fill="white" fill-opacity="0.2"/>
<path d="M559.904 748.952H639.857V828.904H559.904V748.952Z" fill="white" fill-opacity="0.2"/>
<path d="M479.952 828.904H559.904V908.857H479.952V828.904Z" fill="white" fill-opacity="0.2"/>
<path d="M639.857 669H719.809V748.952H639.857V669Z" fill="white" fill-opacity="0.2"/>
<path d="M400 908.857H479.952V988.809H400V908.857Z" fill="white" fill-opacity="0.2"/>
<path d="M559.904 748.952H639.857V828.905H559.904V748.952Z" fill="white" fill-opacity="0.2"/>
<path d="M400 908.857H479.952V988.809H400V908.857Z" fill="white" fill-opacity="0.2"/>
<path d="M559.904 748.952H639.857V828.904H559.904V748.952Z" fill="white" fill-opacity="0.2"/>
<path d="M479.952 828.904H559.904V908.857H479.952V828.904Z" fill="white" fill-opacity="0.2"/>
<path d="M639.857 669H719.809V748.952H639.857V669Z" fill="white" fill-opacity="0.2"/>
<path d="M400 908.857H479.952V988.809H400V908.857Z" fill="white" fill-opacity="0.2"/>
<path d="M559.904 748.952H639.857V828.905H559.904V748.952Z" fill="white" fill-opacity="0.2"/>
<path d="M720 588.857H799.952V668.809H720V588.857Z" fill="white" fill-opacity="0.2"/>
<path d="M879.904 428.952H959.857V508.904H879.904V428.952Z" fill="white" fill-opacity="0.2"/>
<path d="M799.952 508.904H879.904V588.857H799.952V508.904Z" fill="white" fill-opacity="0.2"/>
<path d="M959.857 349H1039.81V428.952H959.857V349Z" fill="white" fill-opacity="0.2"/>
<path d="M720 588.857H799.952V668.809H720V588.857Z" fill="white" fill-opacity="0.2"/>
<path d="M879.904 428.952H959.857V508.905H879.904V428.952Z" fill="white" fill-opacity="0.2"/>
<g opacity="0.3">
<path d="M1500.49 939.999L1482.49 957.999L1476.49 963.999L1500.49 987.999L1512.49 975.999L1500.49 963.999L1512.49 951.999L1500.49 939.999Z" fill="white"/>
<path d="M1500.24 868L1482.24 886L1476.24 892L1500.24 916L1512.24 904L1500.24 892L1512.24 880L1500.24 868Z" fill="white"/>
<path d="M1500 796L1482 814L1476 820L1500 844L1512 832L1500 820L1512 808L1500 796Z" fill="white"/>
<path d="M1454.49 939.999L1436.49 957.999L1430.49 963.999L1454.49 987.999L1466.49 975.999L1454.49 963.999L1466.49 951.999L1454.49 939.999Z" fill="white"/>
<path d="M1454.24 868L1436.24 886L1430.24 892L1454.24 916L1466.24 904L1454.24 892L1466.24 880L1454.24 868Z" fill="white"/>
<path d="M1454 796L1436 814L1430 820L1454 844L1466 832L1454 820L1466 808L1454 796Z" fill="white"/>
<path d="M1404.49 939.999L1386.49 957.999L1380.49 963.999L1404.49 987.999L1416.49 975.999L1404.49 963.999L1416.49 951.999L1404.49 939.999Z" fill="white"/>
<path d="M1404.24 868L1386.24 886L1380.24 892L1404.24 916L1416.24 904L1404.24 892L1416.24 880L1404.24 868Z" fill="white"/>
<path d="M1404 796L1386 814L1380 820L1404 844L1416 832L1404 820L1416 808L1404 796Z" fill="white"/>
<path d="M1358.49 939.999L1340.49 957.999L1334.49 963.999L1358.49 987.999L1370.49 975.999L1358.49 963.999L1370.49 951.999L1358.49 939.999Z" fill="white"/>
<path d="M1358.24 868L1340.24 886L1334.24 892L1358.24 916L1370.24 904L1358.24 892L1370.24 880L1358.24 868Z" fill="white"/>
<path d="M1358 796L1340 814L1334 820L1358 844L1370 832L1358 820L1370 808L1358 796Z" fill="white"/>
<path d="M1312.49 939.999L1294.49 957.999L1288.49 963.999L1312.49 987.999L1324.49 975.999L1312.49 963.999L1324.49 951.999L1312.49 939.999Z" fill="white"/>
<path d="M1312.24 868L1294.24 886L1288.24 892L1312.24 916L1324.24 904L1312.24 892L1324.24 880L1312.24 868Z" fill="white"/>
<path d="M1312 796L1294 814L1288 820L1312 844L1324 832L1312 820L1324 808L1312 796Z" fill="white"/>
<path d="M1266.49 939.999L1248.49 957.999L1242.49 963.999L1266.49 987.999L1278.49 975.999L1266.49 963.999L1278.49 951.999L1266.49 939.999Z" fill="white"/>
<path d="M1266.24 868L1248.24 886L1242.24 892L1266.24 916L1278.24 904L1266.24 892L1278.24 880L1266.24 868Z" fill="white"/>
<path d="M1266 796L1248 814L1242 820L1266 844L1278 832L1266 820L1278 808L1266 796Z" fill="white"/>
<path d="M1220.49 939.999L1202.49 957.999L1196.49 963.999L1220.49 987.999L1232.49 975.999L1220.49 963.999L1232.49 951.999L1220.49 939.999Z" fill="white"/>
<path d="M1220.24 868L1202.24 886L1196.24 892L1220.24 916L1232.24 904L1220.24 892L1232.24 880L1220.24 868Z" fill="white"/>
<path d="M1220 796L1202 814L1196 820L1220 844L1232 832L1220 820L1232 808L1220 796Z" fill="white"/>
<path d="M1170.49 939.999L1152.49 957.999L1146.49 963.999L1170.49 987.999L1182.49 975.999L1170.49 963.999L1182.49 951.999L1170.49 939.999Z" fill="white"/>
<path d="M1170.24 868L1152.24 886L1146.24 892L1170.24 916L1182.24 904L1170.24 892L1182.24 880L1170.24 868Z" fill="white"/>
<path d="M1170 796L1152 814L1146 820L1170 844L1182 832L1170 820L1182 808L1170 796Z" fill="white"/>
<path d="M1124.49 939.999L1106.49 957.999L1100.49 963.999L1124.49 987.999L1136.49 975.999L1124.49 963.999L1136.49 951.999L1124.49 939.999Z" fill="white"/>
<path d="M1124.24 868L1106.24 886L1100.24 892L1124.24 916L1136.24 904L1124.24 892L1136.24 880L1124.24 868Z" fill="white"/>
<path d="M1124 796L1106 814L1100 820L1124 844L1136 832L1124 820L1136 808L1124 796Z" fill="white"/>
<path d="M1078.49 939.999L1060.49 957.999L1054.49 963.999L1078.49 987.999L1090.49 975.999L1078.49 963.999L1090.49 951.999L1078.49 939.999Z" fill="white"/>
<path d="M1078.24 868L1060.24 886L1054.24 892L1078.24 916L1090.24 904L1078.24 892L1090.24 880L1078.24 868Z" fill="white"/>
<path d="M1078 796L1060 814L1054 820L1078 844L1090 832L1078 820L1090 808L1078 796Z" fill="white"/>
</g>
<defs>
<filter id="filter0_d_520_199" x="-22.8" y="-18.8" width="1065.06" height="558.307" filterUnits="userSpaceOnUse" color-interpolation-filters="sRGB">
<feFlood flood-opacity="0" result="BackgroundImageFix"/>
<feColorMatrix in="SourceAlpha" type="matrix" values="0 0 0 0 0 0 0 0 0 0 0 0 0 0 0 0 0 0 127 0" result="hardAlpha"/>
<feOffset dy="4"/>
<feGaussianBlur stdDeviation="11.4"/>
<feComposite in2="hardAlpha" operator="out"/>
<feColorMatrix type="matrix" values="0 0 0 0 0 0 0 0 0 0 0 0 0 0 0 0 0 0 0.25 0"/>
<feBlend mode="normal" in2="BackgroundImageFix" result="effect1_dropShadow_520_199"/>
<feBlend mode="normal" in="SourceGraphic" in2="effect1_dropShadow_520_199" result="shape"/>
</filter>
<filter id="filter1_n_520_199" x="0" y="0" width="1512" height="982" filterUnits="userSpaceOnUse" color-interpolation-filters="sRGB">
<feFlood flood-opacity="0" result="BackgroundImageFix"/>
<feBlend mode="normal" in="SourceGraphic" in2="BackgroundImageFix" result="shape"/>
<feTurbulence type="fractalNoise" baseFrequency="0.5 0.5" stitchTiles="stitch" numOctaves="3" result="noise" seed="5979" />
<feColorMatrix in="noise" type="luminanceToAlpha" result="alphaNoise" />
<feComponentTransfer in="alphaNoise" result="coloredNoise1">
<feFuncA type="discrete" tableValues="1 1 1 1 1 1 1 1 1 1 1 1 1 1 1 1 1 1 1 1 1 1 1 1 1 1 1 1 1 1 1 1 1 1 1 1 1 1 1 1 1 1 1 1 1 1 1 1 1 1 1 0 0 0 0 0 0 0 0 0 0 0 0 0 0 0 0 0 0 0 0 0 0 0 0 0 0 0 0 0 0 0 0 0 0 0 0 0 0 0 0 0 0 0 0 0 0 0 0 0 "/>
</feComponentTransfer>
<feComposite operator="in" in2="shape" in="coloredNoise1" result="noise1Clipped" />
<feFlood flood-color="rgba(0, 0, 0, 0.5)" result="color1Flood" />
<feComposite operator="in" in2="noise1Clipped" in="color1Flood" result="color1" />
<feMerge result="effect1_noise_520_199">
<feMergeNode in="shape" />
<feMergeNode in="color1" />
</feMerge>
</filter>
<linearGradient id="paint0_linear_520_199" x1="1398" y1="-146" x2="1398" y2="308" gradientUnits="userSpaceOnUse">
<stop stop-color="white" stop-opacity="0.57"/>
<stop offset="1" stop-color="#929292" stop-opacity="0"/>
</linearGradient>
</defs>
</svg>
