<svg width="193" height="97" viewBox="0 0 193 97" fill="none" xmlns="http://www.w3.org/2000/svg">
<mask id="mask0_267_72" style="mask-type:luminance" maskUnits="userSpaceOnUse" x="64" y="25" width="96" height="24">
<path d="M64.7417 25.0455H159.574V48.9961H64.7417V25.0455Z" fill="white"/>
</mask>
<g mask="url(#mask0_267_72)">
<mask id="mask1_267_72" style="mask-type:luminance" maskUnits="userSpaceOnUse" x="64" y="25" width="14" height="20">
<path d="M64.7446 25.1823H77.268V44.0007H64.7446V25.1823Z" fill="white"/>
</mask>
<g mask="url(#mask1_267_72)">
<path d="M71.7313 41.5557C71.4795 41.1296 71.2005 40.7308 70.8942 40.3592C70.5878 39.988 70.2299 39.66 69.8209 39.3756C69.7108 39.2964 69.601 39.2569 69.4912 39.2569C69.4755 39.2569 69.4555 39.2609 69.4316 39.2686C69.4082 39.2767 69.3808 39.2804 69.3497 39.2804C69.1766 39.3119 69.0508 39.4066 68.9721 39.5648C68.7678 39.9128 68.6107 40.221 68.5008 40.4897C68.3907 40.7578 68.3277 41.1053 68.3115 41.5322C68.2958 41.7853 68.2958 42.0345 68.3115 42.2796C68.3277 42.5242 68.3437 42.773 68.3594 43.0259C68.3905 43.2948 68.3275 43.4921 68.17 43.6182C68.1232 43.6653 68.0682 43.6971 68.0052 43.7134C67.9427 43.7292 67.8722 43.7449 67.7935 43.7604C67.5892 43.8075 67.2903 43.8551 66.8968 43.9027C66.5037 43.9502 66.1304 43.9465 65.7767 43.8909C65.4227 43.8353 65.1908 43.6733 65.081 43.4044C64.9398 43.0254 64.8534 42.6108 64.8215 42.1609C64.7901 41.7105 64.7824 41.252 64.7981 40.7859C64.8135 40.3197 64.8135 39.8888 64.7981 39.4932C64.7824 38.7506 64.7747 38.0078 64.7747 37.2649V35.0366C64.7901 33.5675 64.8058 32.0941 64.8215 30.6165C64.8377 29.1388 64.8377 27.6574 64.8215 26.1717C64.8215 25.6029 65.081 25.3265 65.6001 25.342C65.7886 25.342 66.0282 25.3265 66.3192 25.2949C66.6098 25.2629 66.9005 25.2508 67.1914 25.2586C67.4829 25.2666 67.7344 25.3222 67.9466 25.4254C68.1586 25.528 68.2724 25.7135 68.2881 25.9814C68.32 26.3928 68.3317 26.8119 68.3232 27.2388C68.3152 27.6651 68.3115 28.084 68.3115 28.4951V30.6165C68.3115 31.3195 68.3035 32.0265 68.2881 32.7378C68.2881 33.0222 68.3275 33.2553 68.4062 33.4371C68.4849 33.6189 68.6264 33.8046 68.8306 33.9942C68.9404 34.1048 69.0742 34.1599 69.2316 34.1599C69.4045 34.1599 69.5539 34.0968 69.6794 33.9706C70.324 33.2751 70.9687 32.5758 71.6133 31.8728C72.2579 31.1693 72.9496 30.5253 73.6886 29.9407C74.2388 29.4826 74.844 29.3008 75.5043 29.3954C75.7405 29.4112 76.0037 29.4703 76.2947 29.5729C76.5853 29.6756 76.8095 29.8218 76.9669 30.0113C77.1244 30.2011 77.1087 30.4462 76.9201 30.7469C76.8568 30.8576 76.7781 30.9602 76.684 31.0549C76.5896 31.1498 76.4952 31.2366 76.401 31.3157C76.1024 31.5847 75.7484 31.9006 75.3394 32.2641C74.931 32.6272 74.5337 33.022 74.1481 33.4488C73.763 33.876 73.4407 34.3187 73.1812 34.7768C72.9222 35.2345 72.7807 35.6969 72.7568 36.1636C72.7334 36.6298 72.8945 37.0917 73.2407 37.5493C73.9165 38.4662 74.6198 39.4146 75.3512 40.3945C76.0822 41.3739 76.668 42.3934 77.1084 43.4525C76.8098 43.6578 76.4521 43.7645 76.0351 43.7722C75.6187 43.7802 75.1943 43.7487 74.7619 43.6781C74.3292 43.607 73.9401 43.5632 73.595 43.5466C73.2487 43.5153 72.9732 43.3814 72.7685 43.1446C72.5642 42.9072 72.3759 42.6463 72.2036 42.3619C72.1403 42.2194 72.0656 42.0812 71.9792 41.947C71.8925 41.8131 71.8101 41.6827 71.7313 41.5557Z" fill="white"/>
</g>
<path d="M91.704 37.8818C91.5152 38.0401 91.2363 38.147 90.8669 38.2026C90.4972 38.2577 90.1042 38.2849 89.6872 38.2849C89.2708 38.2849 88.882 38.2772 88.5203 38.2614C88.1592 38.2451 87.8842 38.2368 87.6949 38.2368C86.878 38.2534 86.0685 38.2654 85.2664 38.2732C84.4644 38.2812 83.6544 38.2849 82.8369 38.2849C82.5859 38.2849 82.4247 38.3641 82.354 38.5223C82.283 38.68 82.2747 38.8575 82.3295 39.0548C82.3848 39.2523 82.4596 39.4223 82.554 39.5648C82.8843 39.9911 83.297 40.3346 83.7921 40.5955C84.2878 40.8564 84.8027 41.0187 85.3366 41.082C85.9345 41.1448 86.4336 41.0617 86.8344 40.8329C87.2356 40.6041 87.6877 40.3632 88.1906 40.1101C88.4267 39.9834 88.5876 39.9043 88.6735 39.8727C88.7599 39.8415 88.9057 39.9128 89.1107 40.0866C89.3304 40.2606 89.5386 40.4977 89.7351 40.7976C89.9314 41.0978 90.1239 41.3584 90.3127 41.5792C90.5175 41.8481 90.5097 42.101 90.2893 42.3384C90.0694 42.5752 89.7314 42.7925 89.2756 42.9906C88.8195 43.1881 88.3241 43.3581 87.7896 43.5006C87.2548 43.6425 86.7711 43.7529 86.3387 43.8321C85.9068 43.9104 85.6121 43.9497 85.4547 43.9497C84.4016 43.9497 83.4307 43.7406 82.5423 43.322C81.6543 42.9029 80.8959 42.3341 80.267 41.6156C79.6378 40.8965 79.166 40.0863 78.8512 39.1852C78.5369 38.2844 78.4156 37.3403 78.4863 36.3528C78.5571 35.3649 78.86 34.4047 79.3947 33.4724C79.8032 32.7453 80.3492 32.1291 81.0329 31.6237C81.7171 31.1185 82.4721 30.7432 83.2975 30.4978C84.1229 30.2526 84.9678 30.1423 85.8323 30.1663C86.6966 30.1898 87.5178 30.3638 88.2959 30.6881C89.0745 31.0118 89.7548 31.4975 90.3372 32.1454C90.6036 32.4456 90.8589 32.8209 91.103 33.2713C91.3469 33.722 91.5551 34.208 91.7274 34.7298C91.9003 35.251 92.0064 35.7605 92.0455 36.2587C92.0851 36.7565 92.0343 37.2104 91.8934 37.6209C91.8615 37.7158 91.7982 37.8027 91.704 37.8818ZM88.1438 35.4162C88.1906 35.3058 88.206 35.1874 88.1906 35.0612C88.1749 34.8717 88.0885 34.6899 87.931 34.5159C87.5069 33.915 86.9567 33.4724 86.2802 33.1879C85.6042 32.9035 84.9125 32.9196 84.2049 33.2361C83.8905 33.378 83.5959 33.5598 83.3209 33.7814C83.0457 34.0024 82.7901 34.2395 82.554 34.4924C82.4915 34.5552 82.4287 34.626 82.3657 34.7052C82.3024 34.7843 82.2553 34.8714 82.2242 34.9661C82.1609 35.1558 82.1923 35.3296 82.3178 35.4878C82.4439 35.6455 82.6013 35.7241 82.7901 35.7241H87.6013C87.8685 35.7241 88.0494 35.6215 88.1438 35.4162ZM96.938 43.5712C96.8279 43.7131 96.671 43.792 96.4668 43.8075C96.2625 43.8232 96.0501 43.847 95.8296 43.8791C95.6254 43.8949 95.3855 43.9104 95.1105 43.9262C94.8353 43.9417 94.5758 43.9144 94.3319 43.8438C94.0886 43.7727 93.9043 43.6262 93.7788 43.4044C93.59 43.0574 93.4799 42.6746 93.448 42.256C93.4168 41.8369 93.4246 41.41 93.4714 40.9751C93.5187 40.5405 93.5426 40.1333 93.5426 39.754C93.5581 39.0115 93.5698 38.2726 93.5777 37.5375C93.5854 36.8027 93.5971 36.0639 93.6128 35.321C93.6291 33.8519 93.633 32.3785 93.6245 30.9009C93.6166 29.4232 93.5971 27.9495 93.566 26.4796C93.566 26.069 93.6525 25.7729 93.8256 25.5911C93.9984 25.4093 94.2266 25.3029 94.5095 25.2714C94.7925 25.2393 95.0988 25.2473 95.4286 25.2949C95.7589 25.342 96.0735 25.3813 96.3721 25.4125C96.7024 25.4446 96.9189 25.6229 97.021 25.9472C97.1231 26.2709 97.1702 26.6184 97.1624 26.9896C97.1545 27.3612 97.1428 27.6574 97.1273 27.8782C97.0954 28.6052 97.0755 29.3403 97.0678 30.0829C97.0598 30.8258 97.0561 31.5686 97.0561 32.3112V43.12C97.0561 43.3097 97.0167 43.46 96.938 43.5712ZM106.653 43.2868C105.789 43.6973 104.917 43.9026 104.037 43.9026C103.533 43.9026 102.978 43.8318 102.373 43.6899C101.768 43.5474 101.179 43.3656 100.605 43.1446C100.031 42.923 99.5243 42.6856 99.0839 42.4324C98.7534 42.2429 98.5802 42.0494 98.5648 41.8519C98.5491 41.6546 98.6196 41.4493 98.7765 41.236C98.9339 41.0229 99.0834 40.7899 99.2254 40.5367C99.2722 40.4576 99.3232 40.3825 99.3786 40.3111C99.4339 40.24 99.4926 40.1807 99.5551 40.1336C99.728 40.0074 99.9088 39.9684 100.098 40.016C100.286 40.063 100.471 40.1419 100.652 40.2523C100.833 40.363 100.994 40.4576 101.136 40.5367C101.623 40.8056 102.157 41.0029 102.739 41.1291C103.321 41.2552 103.887 41.3028 104.437 41.2713C104.846 41.24 105.223 41.1494 105.568 40.9997C105.914 40.8495 106.119 40.6399 106.182 40.371C106.245 40.1023 106.057 39.7861 105.616 39.4226C105.035 38.9644 104.418 38.5851 103.765 38.2849C103.113 37.9842 102.44 37.7233 101.749 37.5023C101.104 37.297 100.585 36.989 100.192 36.5784C99.7993 36.1673 99.5203 35.7089 99.3552 35.2034C99.1898 34.6974 99.1387 34.2074 99.202 33.7332C99.2807 33.228 99.477 32.7461 99.7913 32.2877C100.105 31.8295 100.498 31.4264 100.97 31.0784C101.442 30.7306 101.953 30.4935 102.504 30.3673C102.818 30.2882 103.124 30.2291 103.423 30.1898C103.721 30.15 104.02 30.13 104.32 30.13C104.885 30.13 105.443 30.1973 105.994 30.332C106.544 30.4662 107.071 30.6517 107.573 30.8891C108.029 31.0944 108.355 31.2879 108.552 31.4697C108.748 31.6515 108.819 31.869 108.764 32.1219C108.709 32.3743 108.525 32.7298 108.211 33.1879C107.974 33.536 107.707 33.7298 107.409 33.7696C107.11 33.8089 106.788 33.7653 106.442 33.6391C106.095 33.5124 105.745 33.3579 105.392 33.1762C105.039 32.9944 104.693 32.8404 104.355 32.7143C104.016 32.5876 103.706 32.548 103.423 32.5956C103.14 32.6426 102.888 32.8402 102.669 33.1879C102.464 33.536 102.405 33.8402 102.491 34.1011C102.577 34.3619 102.754 34.5873 103.022 34.7768C103.289 34.9666 103.6 35.1243 103.954 35.2505C104.307 35.3766 104.649 35.4873 104.979 35.5819C105.309 35.6768 105.577 35.7637 105.781 35.8428C106.379 36.0647 106.961 36.3333 107.527 36.649C108.092 36.965 108.548 37.4076 108.895 37.977C109.366 38.7669 109.535 39.5057 109.401 40.1935C109.267 40.8807 108.949 41.4891 108.446 42.0187C107.943 42.5477 107.345 42.9703 106.653 43.2868ZM124.033 37.8818C123.844 38.0401 123.565 38.147 123.195 38.2026C122.826 38.2577 122.433 38.2849 122.016 38.2849C121.599 38.2849 121.211 38.2772 120.849 38.2614C120.488 38.2451 120.213 38.2368 120.023 38.2368C119.206 38.2534 118.397 38.2654 117.595 38.2732C116.793 38.2812 115.983 38.2849 115.165 38.2849C114.914 38.2849 114.753 38.3641 114.683 38.5223C114.612 38.68 114.603 38.8575 114.658 39.0548C114.713 39.2523 114.788 39.4223 114.883 39.5648C115.213 39.9911 115.626 40.3346 116.121 40.5955C116.616 40.8564 117.131 41.0187 117.665 41.082C118.263 41.1448 118.762 41.0617 119.163 40.8329C119.564 40.6041 120.016 40.3632 120.519 40.1101C120.755 39.9834 120.916 39.9043 121.002 39.8727C121.088 39.8415 121.234 39.9128 121.439 40.0866C121.659 40.2606 121.867 40.4977 122.064 40.7976C122.26 41.0978 122.452 41.3584 122.641 41.5792C122.846 41.8481 122.838 42.101 122.618 42.3384C122.398 42.5752 122.06 42.7925 121.604 42.9906C121.148 43.1881 120.653 43.3581 120.118 43.5006C119.583 43.6425 119.1 43.7529 118.667 43.8321C118.235 43.9104 117.941 43.9497 117.783 43.9497C116.73 43.9497 115.759 43.7406 114.871 43.322C113.983 42.9029 113.224 42.3341 112.596 41.6156C111.966 40.8965 111.495 40.0863 111.18 39.1852C110.865 38.2844 110.744 37.3403 110.815 36.3528C110.886 35.3649 111.188 34.4047 111.723 33.4724C112.132 32.7453 112.678 32.1291 113.361 31.6237C114.046 31.1185 114.801 30.7432 115.626 30.4978C116.451 30.2526 117.296 30.1423 118.161 30.1663C119.025 30.1898 119.846 30.3638 120.624 30.6881C121.403 31.0118 122.083 31.4975 122.666 32.1454C122.932 32.4456 123.187 32.8209 123.432 33.2713C123.675 33.722 123.884 34.208 124.056 34.7298C124.229 35.251 124.335 35.7605 124.374 36.2587C124.414 36.7565 124.363 37.2104 124.222 37.6209C124.19 37.7158 124.127 37.8027 124.033 37.8818ZM120.472 35.4162C120.519 35.3058 120.535 35.1874 120.519 35.0612C120.503 34.8717 120.417 34.6899 120.26 34.5159C119.835 33.915 119.285 33.4724 118.609 33.1879C117.933 32.9035 117.241 32.9196 116.533 33.2361C116.219 33.378 115.924 33.5598 115.649 33.7814C115.374 34.0024 115.119 34.2395 114.883 34.4924C114.82 34.5552 114.757 34.626 114.694 34.7052C114.631 34.7843 114.584 34.8714 114.553 34.9661C114.489 35.1558 114.521 35.3296 114.646 35.4878C114.772 35.6455 114.93 35.7241 115.119 35.7241H119.93C120.197 35.7241 120.378 35.6215 120.472 35.4162Z" fill="white"/>
<mask id="mask2_267_72" style="mask-type:luminance" maskUnits="userSpaceOnUse" x="125" y="30" width="15" height="19">
<path d="M125.671 30.1093H139.627V48.9897H125.671V30.1093Z" fill="white"/>
</mask>
<g mask="url(#mask2_267_72)">
<path d="M129.338 48.9515C128.945 48.9515 128.552 48.9079 128.158 48.8211C127.765 48.7339 127.388 48.6035 127.026 48.4297C126.665 48.2565 126.393 48.0315 126.213 47.7551C126.032 47.4784 126.051 47.1424 126.272 46.7468C126.476 46.3832 126.661 46.0871 126.826 45.8583C126.991 45.6294 127.188 45.4832 127.416 45.4199C127.643 45.3563 127.954 45.4116 128.347 45.5856C128.662 45.7118 128.984 45.7313 129.313 45.6444C129.644 45.5581 129.911 45.3883 130.115 45.1355C130.367 44.851 130.481 44.5744 130.458 44.3057C130.434 44.0368 130.423 43.7366 130.423 43.4044C130.423 43.0253 130.324 42.6265 130.127 42.2079C129.931 41.7888 129.77 41.4057 129.644 41.0585C129.487 40.6158 129.321 40.1732 129.148 39.7305C128.976 39.2879 128.803 38.8457 128.63 38.4036C128.284 37.487 127.942 36.5742 127.604 35.6653C127.266 34.7565 126.924 33.8439 126.579 32.9271C126.468 32.5956 126.323 32.2722 126.142 31.9562C125.962 31.6397 125.839 31.3077 125.776 30.9597C125.713 30.6282 125.792 30.4112 126.012 30.3085C126.232 30.2053 126.503 30.1578 126.825 30.1663C127.148 30.1743 127.419 30.1781 127.64 30.1781C127.844 30.1781 128.049 30.1898 128.253 30.2134C128.457 30.2369 128.653 30.2962 128.842 30.3909C129.172 30.5491 129.444 30.8536 129.656 31.304C129.868 31.7539 130.049 32.2318 130.198 32.7378C130.348 33.2433 130.478 33.6622 130.588 33.9941C130.807 34.5317 131.027 35.073 131.247 35.6183C131.468 36.1631 131.735 36.6883 132.049 37.1943C132.316 37.6207 132.584 37.7824 132.851 37.6798C133.118 37.5771 133.331 37.3285 133.488 36.9334C133.881 35.9535 134.27 34.9736 134.655 33.9941C135.04 33.0142 135.43 32.0423 135.823 31.0784C135.854 30.9522 135.897 30.8378 135.952 30.7351C136.007 30.632 136.082 30.5411 136.176 30.4625C136.302 30.3834 136.431 30.3321 136.565 30.3085C136.699 30.2845 136.836 30.2722 136.978 30.2722C137.308 30.2567 137.634 30.2449 137.956 30.2369C138.279 30.2291 138.597 30.2331 138.912 30.2487C139.006 30.2487 139.097 30.2527 139.183 30.2604C139.27 30.2684 139.344 30.304 139.407 30.3673C139.533 30.4622 139.584 30.5967 139.56 30.7704C139.537 30.9444 139.494 31.1024 139.431 31.2441C138.566 33.4253 137.693 35.6023 136.812 37.7749C135.932 39.9476 135.076 42.1245 134.243 44.3057C134.054 44.8109 133.865 45.3285 133.677 45.8583C133.488 46.3878 133.229 46.8657 132.899 47.2921C132.474 47.8294 131.947 48.2365 131.318 48.5131C130.689 48.7895 130.029 48.9357 129.338 48.9515Z" fill="white"/>
</g>
<path d="M145.537 28.447C145.537 29.0479 145.341 29.6563 144.948 30.2722C144.948 30.2879 144.944 30.2957 144.936 30.2957C144.928 30.2957 144.925 30.304 144.925 30.3203C144.704 30.6362 144.488 30.9522 144.276 31.2687C144.064 31.5846 143.847 31.9003 143.627 32.216C143.533 32.343 143.45 32.4694 143.379 32.5956C143.309 32.7218 143.195 32.8244 143.038 32.9035C142.786 33.0463 142.499 33.1136 142.176 33.1056C141.854 33.0971 141.56 33.085 141.293 33.0693C141.088 33.0538 140.978 32.9827 140.962 32.8565C140.947 32.7298 140.982 32.5876 141.069 32.4299C141.155 32.2716 141.222 32.1452 141.269 32.0503C141.395 31.7816 141.521 31.5012 141.646 31.2088C141.772 30.9166 141.796 30.6205 141.718 30.3203C141.654 30.0196 141.536 29.7392 141.363 29.4788C141.19 29.2179 141.104 28.9292 141.104 28.6127C141.104 27.9177 141.316 27.3569 141.741 26.9298C142.181 26.5192 142.708 26.3139 143.321 26.3139C143.934 26.3139 144.461 26.5114 144.901 26.9063C145.325 27.3334 145.537 27.8469 145.537 28.447ZM155.017 43.2868C154.152 43.6973 153.28 43.9026 152.4 43.9026C151.896 43.9026 151.342 43.8318 150.736 43.6899C150.131 43.5474 149.542 43.3656 148.968 43.1446C148.394 42.923 147.888 42.6856 147.447 42.4325C147.117 42.2429 146.944 42.0494 146.928 41.8519C146.912 41.6546 146.983 41.4493 147.14 41.236C147.297 41.023 147.447 40.7899 147.589 40.5367C147.635 40.4576 147.687 40.3825 147.742 40.3111C147.797 40.24 147.856 40.1807 147.918 40.1336C148.091 40.0075 148.272 39.9684 148.461 40.016C148.649 40.0631 148.834 40.1419 149.015 40.2523C149.196 40.363 149.357 40.4576 149.499 40.5367C149.986 40.8056 150.521 41.0029 151.102 41.1291C151.684 41.2552 152.25 41.3028 152.8 41.2713C153.209 41.24 153.586 41.1494 153.932 40.9997C154.278 40.8495 154.482 40.6399 154.545 40.371C154.608 40.1024 154.42 39.7861 153.979 39.4226C153.398 38.9644 152.781 38.5851 152.129 38.2849C151.476 37.9842 150.804 37.7233 150.112 37.5023C149.467 37.297 148.948 36.989 148.556 36.5785C148.163 36.1673 147.884 35.7089 147.718 35.2034C147.553 34.6974 147.502 34.2075 147.565 33.7332C147.644 33.228 147.84 32.7461 148.155 32.2877C148.469 31.8295 148.861 31.4264 149.333 31.0784C149.805 30.7306 150.317 30.4935 150.867 30.3673C151.181 30.2882 151.487 30.2291 151.786 30.1898C152.084 30.15 152.383 30.13 152.683 30.13C153.249 30.13 153.807 30.1973 154.357 30.332C154.907 30.4662 155.434 30.6517 155.937 30.8891C156.393 31.0944 156.719 31.2879 156.915 31.4697C157.112 31.6515 157.182 31.8691 157.127 32.1219C157.072 32.3743 156.888 32.7298 156.574 33.1879C156.338 33.536 156.07 33.7298 155.772 33.7696C155.473 33.8089 155.151 33.7653 154.805 33.6392C154.459 33.5125 154.109 33.358 153.755 33.1762C153.402 32.9944 153.056 32.8404 152.718 32.7143C152.38 32.5876 152.069 32.548 151.786 32.5956C151.503 32.6426 151.252 32.8402 151.032 33.1879C150.828 33.536 150.768 33.8402 150.854 34.1011C150.941 34.362 151.118 34.5873 151.385 34.7768C151.652 34.9666 151.963 35.1243 152.317 35.2505C152.671 35.3766 153.013 35.4873 153.342 35.5819C153.673 35.6768 153.94 35.7637 154.144 35.8428C154.742 36.0647 155.324 36.3333 155.89 36.649C156.456 36.965 156.912 37.4076 157.258 37.977C157.729 38.7669 157.898 39.5057 157.764 40.1935C157.631 40.8807 157.312 41.4891 156.809 42.0187C156.306 42.5477 155.709 42.9703 155.017 43.2868Z" fill="white"/>
</g>
<mask id="mask3_267_72" style="mask-type:luminance" maskUnits="userSpaceOnUse" x="64" y="48" width="121" height="24">
<path d="M64.4014 48.0381H184.082V71.9887H64.4014V48.0381Z" fill="white"/>
</mask>
<g mask="url(#mask3_267_72)">
<path d="M77.3188 58.2844C77.413 59.0751 77.4563 59.8732 77.4486 60.6794C77.4406 61.4851 77.4369 62.2277 77.4369 62.9077C77.4369 63.0654 77.4523 63.3458 77.4837 63.7492C77.5148 64.152 77.5305 64.5746 77.5305 65.0173C77.5305 65.4599 77.4949 65.8432 77.4241 66.1667C77.3539 66.4904 77.2244 66.6681 77.0359 66.7002C76.7841 66.7318 76.4575 66.7791 76.0562 66.8424C75.6555 66.9058 75.2704 66.9216 74.901 66.8895C74.5322 66.8582 74.2532 66.7237 74.0639 66.4864C73.844 66.202 73.7575 65.8427 73.8043 65.4086C73.8517 64.974 73.8676 64.5981 73.8522 64.2816C73.8522 63.3971 73.8482 62.5204 73.8405 61.6513C73.8325 60.7818 73.8365 59.9125 73.8522 59.0435C73.8522 58.2218 73.6554 57.5658 73.2618 57.0761C72.8688 56.5864 72.3029 56.2943 71.5642 56.1994C71.5173 56.1831 71.47 56.1748 71.4227 56.1748H71.2812C70.8251 56.1748 70.3967 56.2975 69.9962 56.5426C69.5955 56.788 69.2655 57.112 69.0059 57.5145C68.7464 57.9174 68.5932 58.364 68.5464 58.8543C68.4988 59.4389 68.4711 60.0194 68.4634 60.596C68.4555 61.1729 68.4594 61.7454 68.4751 62.3143C68.4751 62.9467 68.4711 63.5866 68.4634 64.2346C68.4555 64.8825 68.4517 65.5305 68.4517 66.1784C68.4517 66.4158 68.3297 66.5821 68.0858 66.6767C67.8425 66.7716 67.5438 66.8189 67.1902 66.8189C66.8362 66.8189 66.498 66.8034 66.1754 66.7719C65.8533 66.7398 65.6058 66.7237 65.4329 66.7237C65.1973 66.7237 65.0364 66.6093 64.95 66.3805C64.8633 66.1512 64.8282 65.8785 64.8436 65.5626C64.859 65.2461 64.8864 64.9419 64.9255 64.6495C64.9651 64.3573 64.9851 64.1319 64.9851 63.9737C65.0005 63.5155 65.0122 63.0571 65.0202 62.5987C65.0279 62.1405 65.0319 61.6824 65.0319 61.2247C65.0319 59.2488 65.0122 57.2734 64.9734 55.298C64.9343 53.3229 64.9149 51.3555 64.9149 49.3959C64.9149 49.143 64.946 48.9099 65.0085 48.6966C65.0715 48.4828 65.2446 48.3446 65.5276 48.2818C65.8736 48.2027 66.2352 48.1831 66.6126 48.223C66.9897 48.2623 67.3513 48.2898 67.6976 48.3053C68.1214 48.3211 68.4041 48.471 68.5453 48.7554C68.6871 49.0399 68.7464 49.3916 68.723 49.8108C68.6996 50.2294 68.6485 50.6402 68.5698 51.0436C68.4911 51.4464 68.4517 51.7744 68.4517 52.0273V53.2355C68.4517 53.4095 68.5225 53.5595 68.6645 53.6856C68.7586 53.7813 68.8921 53.8289 69.0644 53.8289H69.1357C69.3873 53.7968 69.6271 53.7613 69.8548 53.722C70.0829 53.6822 70.2994 53.6466 70.5036 53.6151C70.9121 53.5359 71.3049 53.4729 71.6822 53.4258C72.0593 53.3782 72.421 53.3542 72.7672 53.3542C73.8365 53.3542 74.6814 53.5835 75.302 54.0417C75.9232 54.5001 76.387 55.1045 76.6934 55.8551C77.0003 56.6057 77.2087 57.4156 77.3188 58.2844ZM78.9209 59.9919C78.9052 59.1066 79.0783 58.2256 79.44 57.3488C79.8016 56.4715 80.3048 55.7009 80.9494 55.0371C81.5621 54.405 82.2612 53.923 83.047 53.5915C83.8334 53.2595 84.6431 53.0933 85.4765 53.0933H85.9956C87.3636 53.0933 88.5701 53.3777 89.6154 53.9465C90.6613 54.5153 91.4828 55.3055 92.0801 56.317C92.6771 57.3285 92.9757 58.4982 92.9757 59.8262C92.9757 61.8962 92.3314 63.5792 91.0429 64.8751C90.4138 65.5075 89.6628 65.9935 88.79 66.3335C87.9178 66.673 86.9705 66.8424 85.9488 66.8424C84.9737 66.8424 84.0655 66.6647 83.2247 66.3089C82.3835 65.9534 81.6445 65.4637 81.0079 64.8398C80.371 64.2153 79.8679 63.4883 79.4985 62.6586C79.1288 61.8288 78.9363 60.94 78.9209 59.9919ZM85.8776 55.9139C85.3271 55.9139 84.7926 56.0919 84.2735 56.4474C83.7549 56.8032 83.3268 57.2617 82.9885 57.8225C82.6508 58.3835 82.4742 58.9724 82.4588 59.5888C82.4423 60.2683 82.5524 60.924 82.7885 61.5562C83.0247 62.1886 83.3863 62.7182 83.8735 63.1451C84.3607 63.5714 84.966 63.824 85.6893 63.9031C86.4913 63.9823 87.1673 63.8558 87.7178 63.5236C88.268 63.1916 88.6924 62.7371 88.991 62.1603C89.2894 61.5837 89.4543 60.9518 89.4857 60.2646C89.5176 59.5768 89.4155 58.9171 89.1793 58.2854C88.9437 57.6533 88.5666 57.1197 88.0475 56.6848C87.5284 56.2502 86.8681 55.993 86.0669 55.9139H85.8776ZM109.412 56.1277C108.704 56.2226 108.17 56.444 107.808 56.7917C107.446 57.139 107.199 57.5696 107.065 58.0833C106.931 58.5974 106.865 59.1387 106.865 59.7075C106.865 60.2763 106.872 60.8374 106.888 61.3905C106.888 61.5011 106.9 61.7497 106.923 62.1368C106.947 62.5238 106.967 62.9665 106.983 63.4648C106.998 63.9625 106.994 64.4522 106.971 64.9339C106.948 65.4158 106.893 65.8189 106.806 66.1432C106.719 66.4669 106.59 66.6446 106.417 66.6767C106.134 66.7082 105.815 66.7515 105.462 66.8071C105.108 66.8622 104.765 66.8777 104.435 66.8542C104.105 66.8307 103.83 66.732 103.61 66.558C103.39 66.3843 103.28 66.0918 103.28 65.6813C103.264 64.5115 103.257 63.3383 103.257 62.1614C103.257 60.9839 103.209 59.8182 103.115 58.6639C103.068 58.016 102.891 57.4434 102.584 56.9457C102.278 56.4482 101.755 56.1678 101.016 56.1042C100.97 56.0887 100.907 56.0807 100.828 56.0807C100.168 56.0807 99.637 56.2387 99.2357 56.5544C98.8349 56.8703 98.5363 57.2812 98.34 57.7872C98.1435 58.2926 98.0137 58.8259 97.9507 59.3867C97.8874 59.9478 97.8638 60.4814 97.8794 60.9874C97.8957 61.6824 97.9076 62.3816 97.9156 63.0852C97.9233 63.7882 97.9273 64.4875 97.9273 65.183C97.9427 65.7363 97.8874 66.1194 97.7614 66.3324C97.6358 66.5457 97.4236 66.6722 97.1253 66.712C96.8266 66.7513 96.4179 66.7949 95.8988 66.8424C95.3015 66.8895 94.9005 66.7553 94.6957 66.4393C94.4915 66.1236 94.3894 65.6893 94.3894 65.136V61.7465V58.3325V56.6378V54.942C94.3894 54.7212 94.3777 54.4528 94.3543 54.1368C94.3309 53.8204 94.3979 53.5835 94.5553 53.4258C94.6176 53.3467 94.767 53.3071 95.0032 53.3071H95.168C95.2311 53.3071 95.2938 53.3151 95.3563 53.3306C95.5768 53.3622 95.7892 53.3977 95.9935 53.4376C96.1977 53.4769 96.4019 53.5121 96.6062 53.5434C96.9365 53.607 97.2705 53.6664 97.6082 53.722C97.9465 53.777 98.2884 53.8284 98.6347 53.876H98.7761C98.9336 53.876 99.0751 53.8524 99.2006 53.8054C99.3261 53.7578 99.4442 53.7177 99.5548 53.6856C99.5859 53.6544 99.621 53.6348 99.6601 53.6268C99.6997 53.6191 99.7274 53.6073 99.7431 53.5915C100.183 53.4491 100.584 53.3387 100.946 53.2601C101.308 53.181 101.646 53.1414 101.96 53.1414C102.919 53.1414 103.736 53.513 104.413 54.2555C104.852 54.6977 105.308 54.9184 105.78 54.9184C106.063 54.9184 106.319 54.8554 106.547 54.7292C106.774 54.603 106.982 54.4688 107.171 54.3261C107.218 54.2948 107.262 54.2635 107.301 54.232C107.34 54.1999 107.376 54.1761 107.407 54.1604C108.429 53.4648 109.514 53.1168 110.662 53.1168C111.448 53.1168 112.194 53.2831 112.901 53.6151C113.609 53.9473 114.222 54.4373 114.741 55.0852C115.087 55.5116 115.335 55.9973 115.484 56.5426C115.633 57.0879 115.728 57.665 115.767 58.2737C115.806 58.8818 115.822 59.4862 115.815 60.0871C115.807 60.6874 115.826 61.248 115.873 61.769C115.936 62.4648 115.999 63.1841 116.061 63.9267C116.125 64.6695 116.022 65.3805 115.755 66.0598C115.645 66.3287 115.48 66.5024 115.259 66.5815C115.04 66.6607 114.796 66.6885 114.529 66.6649C114.262 66.6409 113.987 66.6366 113.704 66.6521C113.311 66.6521 113.024 66.6326 112.843 66.5933C112.662 66.5543 112.544 66.4436 112.488 66.2618C112.434 66.0801 112.391 65.7836 112.36 65.3722C112.296 64.2033 112.273 63.0261 112.288 61.8406C112.305 60.6554 112.25 59.4937 112.124 58.356C112.045 57.6447 111.805 57.0876 111.405 56.6848C111.004 56.2822 110.489 56.0807 109.86 56.0807C109.797 56.0807 109.726 56.0847 109.647 56.0925C109.569 56.1005 109.49 56.1122 109.412 56.1277ZM130.681 60.8452C130.492 61.0034 130.213 61.1103 129.844 61.1659C129.474 61.221 129.081 61.2483 128.664 61.2483C128.248 61.2483 127.859 61.2405 127.497 61.2247C127.136 61.2084 126.861 61.2001 126.672 61.2001C125.855 61.2167 125.045 61.2287 124.243 61.2365C123.441 61.2445 122.631 61.2483 121.814 61.2483C121.563 61.2483 121.401 61.3274 121.331 61.4856C121.26 61.6433 121.251 61.8208 121.306 62.0181C121.362 62.2156 121.436 62.3856 121.531 62.5281C121.861 62.9545 122.274 63.298 122.769 63.5588C123.265 63.8197 123.779 63.982 124.313 64.0453C124.911 64.1082 125.41 64.025 125.811 63.7962C126.212 63.5674 126.664 63.3266 127.167 63.0734C127.403 62.9467 127.564 62.8676 127.65 62.836C127.737 62.8048 127.882 62.8761 128.087 63.0499C128.307 63.2239 128.515 63.461 128.712 63.7609C128.908 64.0611 129.101 64.3217 129.289 64.5425C129.494 64.8114 129.486 65.0643 129.266 65.3017C129.046 65.5385 128.708 65.7558 128.252 65.9539C127.796 66.1514 127.301 66.3215 126.766 66.4639C126.232 66.6059 125.748 66.7163 125.315 66.7954C124.884 66.8737 124.589 66.913 124.431 66.913C123.378 66.913 122.407 66.704 121.519 66.2854C120.631 65.8662 119.873 65.2974 119.244 64.5789C118.615 63.8598 118.143 63.0496 117.828 62.1485C117.514 61.2477 117.392 60.3036 117.463 59.3162C117.534 58.3282 117.837 57.368 118.371 56.4357C118.78 55.7086 119.326 55.0925 120.01 54.587C120.694 54.0818 121.449 53.7065 122.274 53.4611C123.1 53.216 123.945 53.1056 124.809 53.1296C125.673 53.1532 126.495 53.3272 127.273 53.6514C128.051 53.9751 128.732 54.4608 129.314 55.1088C129.58 55.409 129.836 55.7843 130.08 56.2347C130.324 56.6853 130.532 57.1713 130.704 57.6931C130.877 58.2143 130.983 58.7238 131.022 59.2221C131.062 59.7198 131.011 60.1737 130.87 60.5843C130.838 60.6792 130.775 60.766 130.681 60.8452ZM127.121 58.3795C127.167 58.2691 127.183 58.1507 127.167 58.0245C127.152 57.835 127.065 57.6533 126.908 57.4792C126.484 56.8783 125.933 56.4357 125.257 56.1513C124.581 55.8668 123.889 55.8829 123.182 56.1994C122.867 56.3413 122.573 56.5231 122.298 56.7447C122.022 56.9657 121.767 57.2028 121.531 57.4557C121.468 57.5185 121.405 57.5894 121.342 57.6685C121.279 57.7476 121.232 57.8348 121.201 57.9294C121.138 58.1192 121.169 58.2929 121.295 58.4512C121.421 58.6089 121.578 58.6875 121.767 58.6875H126.578C126.845 58.6875 127.026 58.5848 127.121 58.3795ZM140.513 66.2501C139.649 66.6607 138.776 66.866 137.896 66.866C137.393 66.866 136.838 66.7951 136.233 66.6532C135.628 66.5107 135.038 66.3289 134.465 66.1079C133.891 65.8863 133.384 65.6489 132.944 65.3958C132.613 65.2063 132.44 65.0127 132.425 64.8152C132.409 64.6179 132.479 64.4126 132.636 64.1993C132.794 63.9863 132.943 63.7532 133.085 63.5C133.132 63.4209 133.183 63.3458 133.238 63.2744C133.294 63.2033 133.353 63.144 133.415 63.0969C133.588 62.9708 133.769 62.9317 133.957 62.9793C134.146 63.0264 134.331 63.1052 134.512 63.2156C134.693 63.3263 134.854 63.4209 134.996 63.5C135.483 63.7689 136.017 63.9662 136.599 64.0924C137.181 64.2186 137.747 64.2661 138.296 64.2346C138.705 64.2033 139.083 64.1127 139.428 63.963C139.774 63.8128 139.979 63.6032 140.042 63.3343C140.105 63.0657 139.916 62.7494 139.476 62.3859C138.894 61.9277 138.277 61.5484 137.625 61.2483C136.973 60.9475 136.3 60.6866 135.608 60.4656C134.964 60.2603 134.445 59.9524 134.052 59.5418C133.659 59.1307 133.38 58.6722 133.215 58.1667C133.05 57.6607 132.999 57.1708 133.062 56.6966C133.141 56.1914 133.337 55.7094 133.651 55.251C133.965 54.7928 134.358 54.3897 134.83 54.0417C135.302 53.6939 135.813 53.4568 136.364 53.3306C136.678 53.2515 136.984 53.1925 137.283 53.1532C137.581 53.1133 137.88 53.0933 138.179 53.0933C138.745 53.0933 139.303 53.1606 139.854 53.2954C140.404 53.4296 140.93 53.6151 141.433 53.8524C141.889 54.0577 142.215 54.2513 142.412 54.433C142.608 54.6148 142.679 54.8324 142.624 55.0852C142.569 55.3376 142.384 55.6931 142.07 56.1513C141.834 56.4993 141.567 56.6931 141.268 56.7329C140.97 56.7722 140.647 56.7286 140.301 56.6025C139.955 56.4758 139.605 56.3213 139.252 56.1395C138.898 55.9577 138.553 55.8038 138.214 55.6776C137.876 55.5509 137.566 55.5113 137.283 55.5589C137 55.606 136.748 55.8035 136.528 56.1513C136.324 56.4993 136.265 56.8035 136.351 57.0644C136.437 57.3253 136.614 57.5506 136.882 57.7401C137.149 57.9299 137.46 58.0876 137.813 58.2138C138.167 58.34 138.509 58.4506 138.839 58.5453C139.169 58.6401 139.437 58.727 139.641 58.8061C140.239 59.028 140.821 59.2967 141.386 59.6123C141.952 59.9283 142.408 60.371 142.754 60.9403C143.226 61.7302 143.395 62.469 143.261 63.1568C143.127 63.8441 142.809 64.4524 142.306 64.982C141.803 65.511 141.205 65.9336 140.513 66.2501ZM148.484 66.2501C147.619 65.7441 147.048 65.0723 146.773 64.2346C146.498 63.3971 146.368 62.5043 146.384 61.5562C146.4 61.0031 146.404 60.4501 146.396 59.8968C146.388 59.3437 146.384 58.7984 146.384 58.2608C146.384 57.8818 146.388 57.4985 146.396 57.1114C146.404 56.7244 146.259 56.3809 145.96 56.0807C145.803 55.9069 145.607 55.7925 145.37 55.7375C145.135 55.6819 144.962 55.5354 144.851 55.298C144.805 55.1876 144.773 55.0772 144.758 54.9666C144.742 54.8554 144.726 54.7447 144.71 54.634C144.694 54.3817 144.694 54.1331 144.71 53.8877C144.726 53.6426 144.828 53.4253 145.017 53.2355C145.174 53.0938 145.358 53.0032 145.57 52.9639C145.783 52.9241 145.96 52.8172 146.101 52.6431C146.368 52.3274 146.502 51.98 146.502 51.6006C146.502 51.2208 146.487 50.8573 146.455 50.51C146.424 50.2414 146.404 50.0241 146.396 49.8578C146.388 49.6918 146.51 49.5378 146.762 49.3959C146.95 49.2855 147.19 49.2302 147.481 49.2302C147.771 49.2302 148.062 49.2459 148.353 49.2772C148.645 49.3088 148.892 49.3403 149.097 49.3724C149.505 49.4194 149.725 49.5734 149.756 49.8343C149.788 50.0952 149.788 50.3914 149.757 50.7228C149.694 51.6397 149.859 52.3192 150.252 52.7618C150.44 52.9671 150.652 53.0898 150.888 53.1296C151.124 53.1689 151.364 53.1807 151.608 53.1649C151.852 53.1494 152.084 53.1494 152.304 53.1649C152.523 53.1807 152.712 53.2676 152.87 53.4258C153.042 53.599 153.117 53.8637 153.094 54.2192C153.071 54.575 153.043 54.8636 153.011 55.0852C152.98 55.3854 152.85 55.5985 152.622 55.7246C152.394 55.8508 152.127 55.9457 151.82 56.0091C151.513 56.0727 151.215 56.1478 150.924 56.2347C150.633 56.3218 150.409 56.4678 150.252 56.673C150.079 56.8941 149.933 57.2694 149.816 57.7989C149.698 58.3287 149.631 58.9214 149.616 59.5771C149.6 60.233 149.643 60.8612 149.745 61.4621C149.848 62.0625 150.032 62.5599 150.3 62.9547C150.567 63.3498 150.92 63.5471 151.36 63.5471C151.549 63.5471 151.749 63.5081 151.961 63.4295C152.174 63.3503 152.382 63.283 152.587 63.2274C152.791 63.1718 152.972 63.1835 153.129 63.2627C153.349 63.3418 153.538 63.5514 153.695 63.8914C153.852 64.2309 153.978 64.4952 154.073 64.6847C154.167 64.8588 154.23 65.0328 154.261 65.2065C154.276 65.4439 154.182 65.6299 153.978 65.7647C153.774 65.8988 153.585 66.0132 153.412 66.1079C152.642 66.55 151.824 66.7986 150.959 66.8542C150.095 66.9098 149.269 66.7085 148.484 66.2501ZM167.183 66.2736C167.058 66.4313 166.861 66.5182 166.594 66.5345C166.342 66.5345 166.098 66.4832 165.862 66.3805C165.626 66.2773 165.395 66.1742 165.166 66.0715C164.939 65.9689 164.691 65.9176 164.424 65.9176C164.251 65.9176 164.078 65.9298 163.905 65.9539C163.732 65.9774 163.575 66.005 163.434 66.0362L163.315 66.0598C162.859 66.1389 162.415 66.2421 161.983 66.3688C161.551 66.4949 161.146 66.6211 160.769 66.7473C160.596 66.7951 160.419 66.8347 160.238 66.866C160.057 66.8972 159.873 66.913 159.684 66.913C158.536 66.913 157.57 66.4548 156.783 65.538C155.887 64.511 155.533 63.2466 155.723 61.7454C155.801 61.1453 156.009 60.6083 156.347 60.1341C156.685 59.6602 157.114 59.2967 157.632 59.0435C157.899 58.9173 158.182 58.8265 158.481 58.7709C158.78 58.7153 159.087 58.6639 159.401 58.6169C159.48 58.6169 159.55 58.6131 159.613 58.6051C159.676 58.5974 159.739 58.5856 159.802 58.5698L162.891 58.1422C163.3 58.0796 163.556 57.9572 163.658 57.7754C163.76 57.5936 163.819 57.4477 163.835 57.337C163.866 57.0684 163.783 56.8235 163.587 56.6025C163.39 56.3809 163.158 56.2304 162.891 56.1513C162.404 55.9617 161.901 55.8668 161.382 55.8668H161.311C160.824 55.8826 160.36 55.954 159.92 56.0807C159.48 56.2069 159.055 56.3571 158.647 56.5308C158.521 56.5945 158.371 56.626 158.198 56.626C157.853 56.626 157.511 56.5116 157.173 56.2828C156.834 56.0534 156.594 55.7802 156.453 55.4638C156.39 55.3376 156.363 55.2312 156.371 55.1441C156.378 55.0572 156.39 54.9898 156.406 54.942C156.5 54.7367 156.685 54.5514 156.96 54.386C157.235 54.22 157.526 54.0778 157.832 53.9594C158.139 53.8404 158.395 53.7492 158.599 53.6856C159.731 53.3229 160.871 53.1414 162.019 53.1414H162.349C162.458 53.1414 162.569 53.1494 162.679 53.1649C163.23 53.1965 163.839 53.3028 164.507 53.4846C165.175 53.6664 165.744 54.0101 166.216 54.5153C166.766 55.1163 167.096 55.7169 167.207 56.317C167.333 56.997 167.376 57.7046 167.336 58.4394C167.297 59.1737 167.286 59.8887 167.301 60.5843V62.7302C167.301 63.4487 167.309 64.156 167.325 64.8515C167.325 65.0884 167.336 65.341 167.36 65.6096C167.384 65.8785 167.325 66.0999 167.183 66.2736ZM163.763 62.1967C163.889 61.9438 163.929 61.7302 163.881 61.5562C163.835 61.3824 163.787 61.2638 163.74 61.2001C163.677 61.1055 163.579 61.0146 163.445 60.9275C163.312 60.8406 163.127 60.7893 162.891 60.7735L162.703 60.75C162.561 60.7345 162.415 60.7265 162.266 60.7265H161.783C161.515 60.7265 161.193 60.7543 160.816 60.8099C160.438 60.8649 160.077 61.0109 159.731 61.2483C159.495 61.438 159.346 61.6353 159.283 61.8406C159.22 62.0146 159.212 62.2359 159.26 62.5046C159.369 62.9943 159.581 63.3736 159.896 63.6422C160.211 63.9112 160.588 64.0453 161.029 64.0453C161.579 64.0453 162.121 63.8636 162.655 63.5C163.189 63.1365 163.559 62.7021 163.763 62.1967ZM172.323 71.9148C171.93 71.9148 171.537 71.8713 171.144 71.7844C170.751 71.6972 170.373 71.5668 170.012 71.393C169.65 71.2198 169.379 70.9948 169.198 70.7184C169.017 70.4417 169.037 70.1057 169.258 69.7101C169.462 69.3466 169.646 69.0504 169.812 68.8216C169.977 68.5928 170.173 68.4465 170.401 68.3832C170.629 68.3196 170.939 68.3749 171.333 68.5489C171.647 68.6751 171.969 68.6946 172.299 68.6077C172.629 68.5214 172.897 68.3516 173.101 68.0988C173.352 67.8144 173.467 67.5377 173.443 67.2691C173.42 67.0001 173.408 66.7 173.408 66.3677C173.408 65.9887 173.31 65.5898 173.112 65.1712C172.916 64.7521 172.755 64.369 172.63 64.0218C172.472 63.5792 172.307 63.1365 172.134 62.6938C171.962 62.2512 171.789 61.8091 171.616 61.3669C171.27 60.4503 170.928 59.5375 170.589 58.6287C170.252 57.7198 169.91 56.8072 169.564 55.8904C169.454 55.5589 169.309 55.2355 169.128 54.9195C168.947 54.603 168.825 54.271 168.762 53.923C168.699 53.5915 168.777 53.3745 168.997 53.2718C169.217 53.1687 169.489 53.1211 169.811 53.1296C170.133 53.1377 170.405 53.1414 170.626 53.1414C170.83 53.1414 171.034 53.1532 171.238 53.1767C171.442 53.2002 171.639 53.2595 171.828 53.3542C172.158 53.5124 172.429 53.8169 172.641 54.2673C172.853 54.7172 173.034 55.1951 173.184 55.7011C173.333 56.2066 173.463 56.6255 173.573 56.9575C173.793 57.495 174.013 58.0363 174.233 58.5816C174.453 59.1264 174.72 59.6516 175.035 60.1576C175.302 60.584 175.569 60.7457 175.837 60.6431C176.104 60.5404 176.316 60.2918 176.474 59.8968C176.867 58.9168 177.256 57.9369 177.641 56.9575C178.026 55.9775 178.415 55.0056 178.809 54.0417C178.84 53.9155 178.883 53.8011 178.937 53.6985C178.993 53.5953 179.067 53.5044 179.162 53.4258C179.287 53.3467 179.417 53.2954 179.55 53.2718C179.684 53.2478 179.822 53.2355 179.964 53.2355C180.294 53.22 180.619 53.2082 180.941 53.2002C181.264 53.1925 181.583 53.1965 181.898 53.212C181.992 53.212 182.082 53.216 182.169 53.2237C182.255 53.2317 182.33 53.2673 182.392 53.3306C182.518 53.4255 182.569 53.56 182.545 53.7337C182.522 53.9078 182.479 54.0657 182.417 54.2074C181.551 56.3886 180.679 58.5656 179.798 60.7382C178.918 62.9109 178.061 65.0878 177.228 67.2691C177.039 67.7743 176.851 68.2918 176.662 68.8216C176.473 69.3511 176.214 69.829 175.885 70.2554C175.46 70.7927 174.933 71.1998 174.304 71.4764C173.675 71.7528 173.015 71.8991 172.323 71.9148Z" fill="white"/>
</g>
<path d="M30.222 37.6677C30.222 37.7872 30.2161 37.9061 30.2044 38.0248C30.193 38.1438 30.1754 38.2617 30.1523 38.3787C30.1292 38.4958 30.1004 38.6113 30.0659 38.7254C30.0316 38.8398 29.9914 38.9521 29.9459 39.0622C29.9007 39.1726 29.8499 39.2804 29.7938 39.3857C29.738 39.4907 29.6771 39.5931 29.6111 39.6923C29.5452 39.7914 29.4744 39.8871 29.3992 39.9796C29.3237 40.0718 29.2441 40.1601 29.1601 40.2445C29.0763 40.329 28.9883 40.4089 28.8966 40.4846C28.8048 40.5605 28.7096 40.6313 28.6107 40.6976C28.512 40.7639 28.4105 40.8254 28.3057 40.8815C28.2009 40.9377 28.0937 40.9887 27.9839 41.0344C27.8744 41.0801 27.7627 41.1202 27.6491 41.155C27.5356 41.1895 27.4204 41.2186 27.3039 41.2418C27.1875 41.2651 27.0702 41.2825 26.9521 41.2942C26.8338 41.306 26.7154 41.3119 26.5966 41.3119C26.478 41.3119 26.3596 41.306 26.2413 41.2942C26.1232 41.2825 26.0059 41.2651 25.8895 41.2418C25.773 41.2186 25.6578 41.1895 25.5443 41.155C25.4307 41.1202 25.319 41.0801 25.2092 41.0344C25.0997 40.9887 24.9925 40.9377 24.8877 40.8815C24.7829 40.8254 24.6814 40.7639 24.5827 40.6976C24.4838 40.6313 24.3886 40.5605 24.2968 40.4846C24.2051 40.4089 24.1171 40.329 24.0333 40.2445C23.9493 40.1601 23.8697 40.0718 23.7942 39.9796C23.719 39.8871 23.6482 39.7914 23.5823 39.6923C23.5163 39.5931 23.4554 39.4907 23.3996 39.3854C23.3435 39.2804 23.2927 39.1726 23.2475 39.0622C23.202 38.9521 23.1618 38.8398 23.1275 38.7254C23.093 38.6113 23.0642 38.4958 23.0411 38.3787C23.018 38.2617 23.0004 38.1438 22.9887 38.0248C22.9773 37.9061 22.9714 37.7872 22.9714 37.6677C22.9714 37.5485 22.9773 37.4293 22.9887 37.3106C23.0004 37.1919 23.018 37.0737 23.0411 36.9569C23.0642 36.8398 23.093 36.7241 23.1275 36.61C23.1618 36.4958 23.202 36.3836 23.2475 36.2732C23.2927 36.163 23.3435 36.055 23.3996 35.95C23.4554 35.8447 23.5163 35.7423 23.5823 35.6431C23.6482 35.544 23.719 35.4483 23.7942 35.356C23.8697 35.2638 23.9493 35.1753 24.0333 35.0909C24.1171 35.0067 24.2051 34.9265 24.2968 34.8508C24.3886 34.7752 24.4838 34.7041 24.5827 34.6378C24.6814 34.5715 24.7829 34.5103 24.8877 34.4539C24.9925 34.3977 25.0997 34.3467 25.2092 34.301C25.319 34.2553 25.4307 34.2152 25.5443 34.1804C25.6578 34.1459 25.773 34.1171 25.8895 34.0935C26.0059 34.0703 26.1232 34.0529 26.2413 34.0412C26.3596 34.0294 26.478 34.0235 26.5966 34.0235C26.7154 34.0235 26.8338 34.0294 26.9521 34.0412C27.0702 34.0529 27.1875 34.0703 27.3039 34.0935C27.4204 34.1171 27.5356 34.1459 27.6491 34.1804C27.7627 34.2152 27.8744 34.2553 27.9839 34.301C28.0937 34.3467 28.2009 34.3977 28.3057 34.4539C28.4105 34.5103 28.512 34.5715 28.6107 34.6378C28.7096 34.7041 28.8048 34.7752 28.8966 34.8508C28.9883 34.9265 29.0763 35.0067 29.1601 35.0909C29.2441 35.1753 29.3237 35.2638 29.3992 35.356C29.4744 35.4483 29.5452 35.544 29.6111 35.6431C29.6771 35.7423 29.738 35.8447 29.7938 35.95C29.8499 36.055 29.9007 36.163 29.9459 36.2732C29.9914 36.3836 30.0316 36.4958 30.0659 36.61C30.1004 36.7241 30.1292 36.8398 30.1523 36.9569C30.1754 37.0737 30.193 37.1919 30.2044 37.3106C30.2161 37.4293 30.222 37.5485 30.222 37.6677Z" fill="#D10363"/>
<mask id="mask4_267_72" style="mask-type:luminance" maskUnits="userSpaceOnUse" x="13" y="22" width="11" height="13">
<path d="M13.9558 22.5761H23.4186V34.0783H13.9558V22.5761Z" fill="white"/>
</mask>
<g mask="url(#mask4_267_72)">
<path d="M23.0443 33.6266C23.2307 33.3921 23.3408 33.0813 23.3594 32.7776C23.499 30.5143 21.0479 29.259 19.7917 27.7771C18.7144 26.5069 18.1682 24.8693 17.76 23.2505C17.7042 23.0276 17.6334 22.7803 17.4377 22.6603C17.2978 22.5761 17.1226 22.5761 16.9569 22.5761C15.9913 22.5874 15.0257 22.5986 14.0583 22.6117C14.0415 23.5804 14.0266 24.5491 14.0099 25.5176C13.995 26.4189 13.9801 27.3294 14.1628 28.2117C14.3455 29.0944 14.7462 29.9599 15.4339 30.5389C16.0397 31.0484 16.8207 31.2994 17.5962 31.4456C18.3865 31.5937 19.2346 31.6611 19.8813 32.1425C20.3398 32.4836 20.6379 32.9952 21.0312 33.4092C21.4245 33.8233 22.0042 34.1566 22.5486 33.9823C22.748 33.9187 22.9158 33.7912 23.0461 33.6266H23.0443Z" fill="#F1C40F"/>
</g>
<mask id="mask5_267_72" style="mask-type:luminance" maskUnits="userSpaceOnUse" x="19" y="22" width="13" height="12">
<path d="M19.6743 22.5761H31.4517V33.394H19.6743V22.5761Z" fill="white"/>
</mask>
<g mask="url(#mask5_267_72)">
<path d="M31.3834 22.6737C31.4541 22.8159 31.0701 23.0896 30.8446 23.3163C30.1067 24.0581 29.3871 24.8207 28.7571 25.6582C27.9295 26.7579 27.2567 27.9982 26.9751 29.3473C26.7738 30.3104 26.7738 31.3031 26.7273 32.2868C26.7124 32.583 26.6826 32.907 26.4813 33.1224C26.2186 33.4015 25.7449 33.3846 25.4282 33.1711C25.1112 32.9575 24.923 32.5961 24.7926 32.2344C24.4589 31.3013 24.4198 30.254 23.9015 29.4109C23.1487 28.1837 21.581 27.6985 20.6995 26.5611C19.9631 25.6095 19.8084 24.3393 19.7246 23.1364C19.7153 23.0126 19.7097 22.8817 19.7749 22.7766C19.8924 22.5855 20.1644 22.5911 20.3862 22.6117C21.1244 22.6812 21.868 22.6718 22.608 22.6643C24.8541 22.6397 27.102 22.6173 29.348 22.593C29.9035 22.5874 30.4588 22.5743 31.0124 22.5761C31.2435 22.5761 31.3518 22.6135 31.3815 22.6718L31.3834 22.6737Z" fill="#F1C40F"/>
</g>
<mask id="mask6_267_72" style="mask-type:luminance" maskUnits="userSpaceOnUse" x="28" y="22" width="30" height="11">
<path d="M28.116 22.5761H57.0489V32.8466H28.116V22.5761Z" fill="white"/>
</mask>
<g mask="url(#mask6_267_72)">
<path d="M56.617 22.7729C56.7659 22.876 56.8685 23.0444 56.9281 23.3144C57.0494 23.8669 57.0345 24.5039 56.6337 24.9426C56.0131 25.6207 54.9318 25.4165 54.0279 25.2628C50.2328 24.6146 46.3654 25.8512 42.8762 27.4868C39.387 29.1224 36.0711 31.1796 32.3992 32.3373C31.5418 32.6073 30.6581 32.8284 29.7617 32.8265C29.4224 32.8265 29.0644 32.7851 28.7849 32.5905C28.3972 32.3205 28.2502 31.8166 28.1959 31.3446C28.0374 29.9693 28.4552 28.5734 29.1373 27.3687C29.8175 26.1639 30.7515 25.1278 31.7038 24.1257C32.2053 23.5991 32.7364 23.0632 33.4132 22.8009C33.9945 22.5761 34.6359 22.5761 35.2621 22.5761C42.1194 22.5874 48.9766 22.6005 55.8341 22.6117C56.1676 22.6117 56.4287 22.6397 56.617 22.7729Z" fill="#F1C40F"/>
</g>
<path d="M56.7342 27.6929C56.8406 27.8089 56.9113 27.9551 56.9336 28.1369C57.0716 29.2553 56.9262 30.4881 56.915 31.6143C56.8927 33.7426 56.8517 35.869 56.7919 37.9957C56.7826 38.3159 56.4621 38.5314 56.1638 38.4172C53.4537 37.3755 50.6524 36.3993 47.7668 36.5549C45.4463 36.6803 43.2375 37.5308 41.0048 38.1775C38.7718 38.8238 36.3654 39.2659 34.1473 38.5747C33.2751 38.3028 32.4252 37.8326 31.9162 37.07C31.4074 36.3076 31.3216 35.217 31.8882 34.4958C32.209 34.0893 32.6898 33.8439 33.1801 33.6827C34.714 33.1804 36.3971 33.413 37.9628 33.0214C40.4511 32.4012 42.2852 30.3291 44.522 29.0701C47.644 27.3125 51.3941 27.2171 54.9729 27.2302C55.5021 27.2302 56.3446 27.2658 56.7323 27.6929H56.7342Z" fill="#F1C40F"/>
<path d="M56.9373 40.881C56.9224 40.8473 56.9038 40.8133 56.8815 40.7834C56.79 40.6637 56.6429 40.6035 56.5031 40.5492C51.7725 38.7337 46.4361 37.962 41.6515 39.6294C40.6115 39.9927 39.6068 40.465 38.5425 40.7479C37.478 41.0307 36.3151 41.1095 35.2993 40.6861C34.2555 40.2515 33.4838 39.3464 32.5219 38.7487C32.3842 38.6626 32.2313 38.5821 32.0691 38.5971C31.8007 38.6214 31.6236 38.9192 31.6367 39.1889C31.6497 39.4589 31.7989 39.7024 31.9555 39.9216C33.2434 41.7259 35.2416 42.8892 37.2919 43.7117C39.3438 44.5342 41.5023 45.0683 43.5415 45.9189C47.3325 47.5003 50.6019 50.1701 53.163 53.3719C54.4565 54.9907 55.5468 56.7424 56.5031 58.5804C56.9411 59.4216 56.9038 58.3556 56.9094 57.9434C56.9169 57.2802 56.9243 56.6151 56.9299 55.952C56.9429 54.6234 56.9541 53.2971 56.9615 51.9686C56.9857 48.4107 56.995 44.8529 56.9932 41.295C56.9932 41.1544 56.9895 41.0063 56.9373 40.881Z" fill="#F1C40F"/>
<path d="M30.9452 40.9596C30.9917 40.9858 31.029 41.0344 31.0457 41.1151C31.1353 41.5161 31.2507 41.9115 31.4372 42.2766C31.7839 42.9531 32.3001 43.5359 32.8966 44.0004C33.8547 44.746 34.999 45.2052 36.1491 45.5872C38.9206 46.5054 41.8528 47.0411 44.4081 48.4612C45.2747 48.9429 46.0855 49.5179 46.8442 50.157C47.6066 50.7996 48.3167 51.5021 48.9913 52.2367C49.6756 52.9803 50.3242 53.756 50.9635 54.5411C51.6065 55.3318 52.2402 56.1297 52.8869 56.9167C53.5321 57.7017 54.1918 58.4756 54.8907 59.2118C55.2375 59.579 55.5935 59.937 55.9624 60.2818C56.1451 60.4521 56.3278 60.6263 56.5216 60.7857C56.6485 60.8907 56.8011 60.9805 56.8647 61.1398C56.9633 61.3815 56.9354 61.6942 56.9484 61.9511C56.9652 62.2807 56.9782 62.6106 56.9857 62.942C57.0006 63.6036 56.995 64.263 56.9726 64.9244C56.9577 65.3534 56.9335 65.7824 56.9019 66.2114C56.8796 66.502 56.8293 66.8353 56.5812 66.9853C56.4323 67.0751 56.2477 67.0732 56.0743 67.0676C48.5608 66.8728 41.0438 66.8917 33.5321 67.1278C33.3811 65.5988 34.5852 64.3192 35.6327 63.1989C37.0158 61.7207 38.2962 60.0869 38.9842 58.1794C39.6719 56.2722 39.6998 54.0407 38.6691 52.2966C37.8378 50.8913 36.4286 49.9416 35.0269 49.1116C33.6255 48.2816 32.1549 47.4984 31.0643 46.2843C29.974 45.0702 29.3329 43.2902 29.9312 41.7708C30.0224 41.5404 30.1604 41.3156 30.3506 41.1544C30.4772 41.0456 30.7811 40.8698 30.947 40.9633L30.9452 40.9596ZM21.6459 35.4475C21.6608 35.0297 21.1335 34.6381 20.7849 34.5277C20.4886 34.4338 20.1754 34.4039 19.8679 34.3571C19.0218 34.2296 18.1793 33.9599 17.4895 33.4523C16.9491 33.0551 16.5202 32.5266 16.0505 32.0489C15.5809 31.5713 15.0384 31.1251 14.3898 30.9605C14.2648 30.9284 14.1048 30.9209 14.0356 31.0297C14.0002 31.0858 14.0002 31.1553 14.0002 31.2189C14.0282 34.4338 14.0561 37.6509 14.0824 40.866C14.0824 41.0513 14.1048 41.2726 14.2648 41.3661C14.4382 41.4675 14.6563 41.3493 14.8092 41.2181C15.2825 40.8171 15.6312 40.2683 15.7934 39.6688C15.9742 38.9981 16.0394 38.2317 16.3917 37.6228C16.7271 37.0457 17.3273 36.6503 17.8791 36.3058C18.6303 35.8334 19.5305 35.4119 20.4232 35.7305C20.604 35.7942 20.7737 35.8877 20.9601 35.9273C21.1465 35.9666 21.3627 35.9404 21.4914 35.796C21.5938 35.6819 21.6404 35.5619 21.6441 35.4456L21.6459 35.4475Z" fill="#F1C40F"/>
<path d="M21.0516 37.413C21.7542 37.9919 21.3143 39.414 20.6937 40.0323C19.9108 40.8096 18.675 40.982 17.9126 41.7783C17.4671 42.2448 17.2342 42.8724 17.0478 43.4907C16.4792 45.3848 16.4066 47.2755 16.1811 49.2239C16.129 49.681 16.0468 50.1552 15.7766 50.5259C15.469 50.9493 14.9602 51.176 14.4606 51.326C14.347 51.3596 14.2109 51.388 14.1196 51.3129C14.0337 51.2436 14.0263 51.118 14.0244 51.0076C13.9909 48.4837 13.9909 45.9601 14.0282 43.4364C14.0282 43.3373 14.0319 43.2322 14.0787 43.1443C14.1569 42.9962 14.3358 42.9382 14.4925 42.8818C15.2528 42.6158 15.9314 42.1232 16.4271 41.4862C16.8558 40.9352 17.1409 40.2889 17.4448 39.6594C17.7485 39.0299 18.0804 38.3985 18.5779 37.9093C19.0757 37.4204 19.7672 37.0868 20.457 37.1769C20.7104 37.2106 20.9043 37.2929 21.0516 37.413Z" fill="#F1C40F"/>
<path d="M21.9779 40.4875C22.1197 40.437 22.2667 40.4199 22.4085 40.4707C22.7645 40.5998 22.852 41.0627 22.8408 41.4429C22.772 43.5262 21.4429 45.3661 21.0982 47.4214C20.8783 48.7312 21.0684 50.0744 21.3554 51.369C21.4897 51.9723 21.6442 52.5962 21.5213 53.2014C21.3628 53.9883 20.7421 54.6253 20.0188 54.9683C19.2958 55.3128 18.4812 55.401 17.6816 55.416C16.6322 55.4347 15.581 55.3356 14.5559 55.1182C14.4327 55.0918 14.3024 55.06 14.2091 54.9758C14.062 54.8408 14.0487 54.6178 14.0469 54.4174C14.0431 54.1233 14.0376 53.8309 14.0338 53.5369C14.0301 53.3139 13.9612 52.9859 14.0338 52.7742C14.1439 52.4559 14.5391 52.4051 14.8223 52.3209C16.0451 51.9592 17.2585 51.2549 17.7973 50.0931C18.4794 48.6262 17.9145 46.8876 18.168 45.2875C18.4756 43.3504 19.9555 41.8027 21.5753 40.7048C21.7003 40.6204 21.838 40.5362 21.9798 40.4856L21.9779 40.4875ZM27.5789 42.1456C27.7802 42.2747 27.9201 42.5728 27.9908 42.8275C28.6282 45.1132 29.3683 47.5134 31.1224 49.1038C32.5238 50.3744 34.4178 50.9814 35.7261 52.3658C37.0345 53.7504 37.3459 56.0025 36.6973 57.8236C36.4904 58.4042 36.1883 58.9514 35.7969 59.4291C34.973 60.4333 33.8213 61.1193 32.9637 62.0952C31.9611 63.2382 31.4075 64.7669 31.4447 66.2884C31.4503 66.5338 31.4484 66.8278 31.2415 66.961C31.1391 67.0264 31.0086 67.0321 30.8854 67.0358C29.81 67.062 28.7346 67.0751 27.6573 67.0751C27.1055 67.0751 26.5556 67.0714 26.0041 67.0657C25.6889 67.062 25.3105 67.1596 25.0031 67.0526C24.9209 67.0246 24.8465 66.9591 24.8334 66.8727C24.8148 66.7511 24.9191 66.6461 25.0143 66.5694C25.9182 65.8442 26.8167 65.0912 27.5528 64.1879C28.3618 63.1952 28.9732 62.0278 29.525 60.8755C30.3246 59.2061 30.9955 57.4096 30.9397 55.5585C30.8352 52.1522 28.3488 49.3289 27.3162 46.082C26.9824 45.0309 26.8016 43.9235 26.8744 42.8219C26.8949 42.5241 26.9861 42.1643 27.2752 42.0932C27.3869 42.0649 27.4877 42.0895 27.577 42.1456H27.5789Z" fill="#F1C40F"/>
<path d="M25.7058 43.5206C25.7002 45.5217 26.2073 47.5003 26.9173 49.3738C27.6835 51.3936 28.703 53.3719 28.8615 55.5267C29.0589 58.219 27.8699 60.8418 26.2911 63.0284C25.2343 64.4916 23.9315 65.8631 22.2519 66.5113C21.1188 66.9497 19.9146 67.0059 18.7161 67.0545C17.9875 67.0845 17.2567 67.0997 16.5259 67.0997C15.9111 67.0997 15.1338 67.212 14.5392 67.0321C13.7358 66.7904 14.0677 65.7225 14.0677 65.1155C14.0863 64.4429 14.0993 63.7683 14.1086 63.0957C14.1347 61.2484 14.1217 59.401 14.1217 57.5555C14.1217 57.4245 14.1254 57.2877 14.1905 57.1754C14.336 56.9298 14.6846 56.9316 14.966 56.9637C17.0926 57.196 19.2549 57.2465 21.3629 56.8811C22.0825 56.7576 22.8186 56.574 23.402 56.1316C24.3208 55.4366 24.7011 54.2206 24.7646 53.0648C24.9415 49.8421 23.0869 46.6609 23.7395 43.5C23.8344 43.0373 24.0041 42.5559 24.3806 42.271C24.7572 41.9882 25.389 42.0144 25.6146 42.4303C25.73 42.6439 25.7169 42.9005 25.7095 43.1443C25.7058 43.2696 25.702 43.3953 25.702 43.5206H25.7058Z" fill="#F1C40F"/>
<mask id="mask7_267_72" style="mask-type:luminance" maskUnits="userSpaceOnUse" x="24" y="27" width="21" height="40">
<path d="M24.7324 27.8581H44.0258V66.9933H24.7324V27.8581Z" fill="white"/>
</mask>
<g mask="url(#mask7_267_72)">
<path d="M34.3641 27.8586C29.0527 27.8586 24.7471 32.1866 24.7471 37.5255V66.9888H43.9811V37.5255C43.9811 32.1866 39.6752 27.8586 34.3641 27.8586Z" fill="white"/>
</g>
<mask id="mask8_267_72" style="mask-type:luminance" maskUnits="userSpaceOnUse" x="21" y="27" width="29" height="41">
<path d="M21.6016 27.8581H49.8777V67.209H21.6016V27.8581Z" fill="white"/>
</mask>
<g mask="url(#mask8_267_72)">
<path d="M49.9217 42.0884V67.2633H43.6596V42.3618C43.6596 40.0951 42.7454 38.043 41.2679 36.5568C39.7896 35.0719 37.748 34.1526 35.4927 34.1526C30.9823 34.1526 27.3258 37.8281 27.3258 42.3618V67.2633H21.6091V42.0884C21.6091 34.2293 27.9473 27.8581 35.765 27.8581C39.6736 27.8581 43.2134 29.4507 45.7753 32.0259C48.3373 34.6012 49.9217 38.1582 49.9217 42.0884Z" fill="white"/>
</g>
<mask id="mask9_267_72" style="mask-type:luminance" maskUnits="userSpaceOnUse" x="20" y="26" width="31" height="41">
<path d="M20.5859 26.6731H50.2401V66.9986H20.5859V26.6731Z" fill="white"/>
</mask>
<g mask="url(#mask9_267_72)">
<path d="M50.2216 41.5642V67.908H43.6688V41.8502C43.6688 39.4782 42.712 37.3309 41.1659 35.7757C39.619 34.2216 37.4825 33.2598 35.1227 33.2598C30.4027 33.2598 26.5766 37.1061 26.5766 41.8502V67.908H20.5942V41.5642C20.5942 33.34 27.2268 26.6731 35.4075 26.6731C39.4977 26.6731 43.2019 28.3395 45.8827 31.0345C48.5638 33.7292 50.2216 37.4514 50.2216 41.5642Z" fill="#05807E"/>
</g>
<mask id="mask10_267_72" style="mask-type:luminance" maskUnits="userSpaceOnUse" x="20" y="26" width="31" height="41">
<path d="M20.5859 26.4162H50.2401V66.7418H20.5859V26.4162Z" fill="white"/>
</mask>
<g mask="url(#mask10_267_72)">
<path fill-rule="evenodd" clip-rule="evenodd" d="M23.9563 71.3429V41.7561C23.9563 38.6976 25.1649 35.7642 27.3165 33.6014C29.4681 31.4384 32.3864 30.2235 35.4295 30.2235C38.4725 30.2235 41.3905 31.4384 43.5424 33.6014C45.694 35.7642 46.9027 38.6976 46.9027 41.7561V71.3429H50.269V41.3485C50.269 37.3924 48.7057 33.5982 45.9227 30.8009C43.1398 28.0035 39.3652 26.432 35.4295 26.432C31.4937 26.432 27.7191 28.0035 24.9362 30.8009C22.1533 33.5982 20.5896 37.3924 20.5896 41.3485V71.3429H23.9563Z" fill="#0B5858"/>
</g>
<mask id="mask11_267_72" style="mask-type:luminance" maskUnits="userSpaceOnUse" x="37" y="48" width="6" height="6">
<path d="M37.5405 48.7542H42.5934V53.5123H37.5405V48.7542Z" fill="white"/>
</mask>
<g mask="url(#mask11_267_72)">
<path d="M37.542 51.143C37.5365 50.9951 37.5495 50.8128 37.5785 50.6351C37.6545 50.1681 37.8487 49.7602 38.1659 49.4004C38.4531 49.0748 38.7847 48.8808 39.2004 48.7949C39.3107 48.7722 39.5453 48.7519 39.6676 48.7546C40.0242 48.7623 40.5505 48.8471 40.9002 48.9532C41.0621 49.0024 41.2475 49.0807 41.3759 49.1545C41.5807 49.2724 41.7764 49.4464 41.9463 49.6618C42.0437 49.7851 42.3019 50.1954 42.3617 50.3215C42.3838 50.368 42.4152 50.4346 42.4317 50.4694C42.471 50.5525 42.4838 50.5937 42.521 50.757C42.6085 51.1419 42.6306 51.441 42.5923 51.7244C42.5641 51.9326 42.4934 52.1275 42.3724 52.3309C42.2968 52.4578 42.2008 52.5696 42.0304 52.7286C41.8844 52.865 41.7613 52.9604 41.5799 53.0788C41.3448 53.2322 41.1871 53.3076 40.9661 53.3718C40.9196 53.3851 40.8518 53.4052 40.8156 53.4161C40.5965 53.4819 40.3024 53.5199 40.0755 53.5113C39.8692 53.5035 39.5775 53.472 39.4272 53.4415C39.0618 53.367 38.7568 53.233 38.5108 53.039C38.3318 52.8978 38.1273 52.6629 37.9665 52.4132C37.7992 52.1539 37.6947 51.9307 37.6215 51.6776C37.5822 51.5407 37.5484 51.3135 37.542 51.143Z" fill="white"/>
</g>
<mask id="mask12_267_72" style="mask-type:luminance" maskUnits="userSpaceOnUse" x="38" y="49" width="4" height="4">
<path d="M38.1719 49.3468H41.9789V52.9202H38.1719V49.3468Z" fill="white"/>
</mask>
<g mask="url(#mask12_267_72)">
<path d="M38.1726 51.1407C38.1683 51.0295 38.1782 50.8926 38.2 50.7589C38.2572 50.4085 38.4029 50.1022 38.6412 49.8319C38.8568 49.5873 39.1057 49.4417 39.4182 49.3772C39.5009 49.3601 39.6772 49.3449 39.769 49.3468C40.0368 49.3526 40.4322 49.4163 40.6947 49.4959C40.8162 49.5328 40.9555 49.5919 41.0518 49.6472C41.2058 49.7357 41.3528 49.8664 41.4802 50.0281C41.5533 50.1206 41.7475 50.4288 41.7924 50.5237C41.8089 50.5585 41.8326 50.6085 41.8448 50.6346C41.8743 50.6972 41.8839 50.7279 41.9118 50.8506C41.9775 51.1396 41.9943 51.3644 41.9653 51.5772C41.9443 51.7335 41.8913 51.8798 41.8001 52.0327C41.7435 52.1281 41.6714 52.212 41.5435 52.3315C41.4337 52.4336 41.3414 52.5055 41.2052 52.5945C41.0287 52.7097 40.9101 52.7661 40.7441 52.8143C40.7093 52.8244 40.6582 52.8394 40.6311 52.8477C40.4668 52.8971 40.2458 52.9255 40.0753 52.919C39.9203 52.9132 39.7014 52.8896 39.5884 52.8667C39.314 52.8108 39.085 52.7103 38.9002 52.5646C38.7659 52.4585 38.6122 52.2818 38.4914 52.0947C38.3659 51.8998 38.2872 51.7322 38.2324 51.5419C38.2029 51.4392 38.1774 51.2687 38.1726 51.1407Z" fill="#F1C40F"/>
</g>
<mask id="mask13_267_72" style="mask-type:luminance" maskUnits="userSpaceOnUse" x="13" y="66" width="45" height="4">
<path d="M13.6707 66.7327H57.1443V69.2392H13.6707V66.7327Z" fill="white"/>
</mask>
<g mask="url(#mask13_267_72)">
<mask id="mask14_267_72" style="mask-type:luminance" maskUnits="userSpaceOnUse" x="13" y="66" width="45" height="4">
<path d="M13.6157 66.7196H57.1854V69.2515H13.6157V66.7196Z" fill="white"/>
</mask>
<g mask="url(#mask14_267_72)">
<mask id="mask15_267_72" style="mask-type:luminance" maskUnits="userSpaceOnUse" x="13" y="66" width="45" height="4">
<path d="M13.6707 66.7327H57.1443V69.2392H13.6707V66.7327Z" fill="white"/>
</mask>
<g mask="url(#mask15_267_72)">
<path d="M13.6707 66.7327H57.1433V69.2392H13.6707V66.7327Z" fill="white"/>
</g>
</g>
</g>
</svg>
